# MagicaVoxel @ Ephtracy

# group
g Asset-29

# material
mtllib Asset-29.mtl
usemtl palette

# normals
vn -1 0 0
vn 1 0 0
vn 0 0 1
vn 0 0 -1
vn 0 -1 0
vn 0 1 0

# texcoords
vt 0.369141 0.5
vt 0.970703 0.5
vt 0.982422 0.5
vt 0.986328 0.5
vt 0.990234 0.5

# verts
v -20 38 20
v -20 38 -20
v -20 39 20
v -20 39 -20
v -20 40 20
v -20 40 -20
v -6 39 20
v -6 39 -20
v -6 40 20
v -6 40 -20
v 4 39 19
v 4 39 11
v 4 39 9
v 4 39 1
v 4 39 -1
v 4 39 -9
v 4 39 -11
v 4 39 -19
v 4 40 19
v 4 40 11
v 4 40 9
v 4 40 1
v 4 40 -1
v 4 40 -9
v 4 40 -11
v 4 40 -19
v 16 39 20
v 16 39 -20
v 16 40 20
v 16 40 -20
v -16 39 20
v -16 39 -20
v -16 40 20
v -16 40 -20
v -4 39 19
v -4 39 11
v -4 39 9
v -4 39 1
v -4 39 -1
v -4 39 -9
v -4 39 -11
v -4 39 -19
v -4 40 19
v -4 40 11
v -4 40 9
v -4 40 1
v -4 40 -1
v -4 40 -9
v -4 40 -11
v -4 40 -19
v 6 39 20
v 6 39 -20
v 6 40 20
v 6 40 -20
v 20 38 20
v 20 38 -20
v 20 39 20
v 20 39 -20
v 20 40 20
v 20 40 -20
v -20 38 20
v -20 39 20
v -20 40 20
v -17 39 20
v -17 40 20
v -16 39 20
v -16 40 20
v -6 39 20
v -6 40 20
v -4 39 20
v -4 40 20
v 4 39 20
v 4 40 20
v 6 39 20
v 6 40 20
v 16 39 20
v 16 40 20
v 17 39 20
v 17 40 20
v 20 38 20
v 20 39 20
v 20 40 20
v -4 39 11
v -4 40 11
v 4 39 11
v 4 40 11
v -4 39 1
v -4 40 1
v 4 39 1
v 4 40 1
v -4 39 -9
v -4 40 -9
v 4 39 -9
v 4 40 -9
v -4 39 -19
v -4 40 -19
v 4 39 -19
v 4 40 -19
v -4 39 19
v -4 40 19
v 4 39 19
v 4 40 19
v -4 39 9
v -4 40 9
v 4 39 9
v 4 40 9
v -4 39 -1
v -4 40 -1
v 4 39 -1
v 4 40 -1
v -4 39 -11
v -4 40 -11
v 4 39 -11
v 4 40 -11
v -20 38 -20
v -20 39 -20
v -20 40 -20
v -17 39 -20
v -17 40 -20
v -16 39 -20
v -16 40 -20
v -6 39 -20
v -6 40 -20
v -4 39 -20
v -4 40 -20
v 4 39 -20
v 4 40 -20
v 6 39 -20
v 6 40 -20
v 16 39 -20
v 16 40 -20
v 17 39 -20
v 17 40 -20
v 20 38 -20
v 20 39 -20
v 20 40 -20
v -20 38 20
v 20 38 20
v -20 38 -20
v 20 38 -20
v -16 39 20
v -6 39 20
v 6 39 20
v 16 39 20
v -4 39 19
v 4 39 19
v -4 39 11
v 4 39 11
v -4 39 9
v 4 39 9
v -4 39 1
v 4 39 1
v -4 39 -1
v 4 39 -1
v -4 39 -9
v 4 39 -9
v -4 39 -11
v 4 39 -11
v -4 39 -19
v 4 39 -19
v -16 39 -20
v -6 39 -20
v 6 39 -20
v 16 39 -20
v -20 40 20
v -17 40 20
v -16 40 20
v -6 40 20
v -4 40 20
v 4 40 20
v 6 40 20
v 16 40 20
v 17 40 20
v 20 40 20
v -4 40 19
v 4 40 19
v -4 40 11
v 4 40 11
v -4 40 9
v 4 40 9
v -4 40 1
v 4 40 1
v -4 40 -1
v 4 40 -1
v -4 40 -9
v 4 40 -9
v -4 40 -11
v 4 40 -11
v -4 40 -19
v 4 40 -19
v -20 40 -20
v -17 40 -20
v -16 40 -20
v -6 40 -20
v -4 40 -20
v 4 40 -20
v 6 40 -20
v 16 40 -20
v 17 40 -20
v 20 40 -20

# faces
f 3/4/1 2/4/1 1/4/1
f 4/4/1 2/4/1 3/4/1
f 5/3/1 4/3/1 3/3/1
f 6/3/1 4/3/1 5/3/1
f 9/2/1 8/2/1 7/2/1
f 10/2/1 8/2/1 9/2/1
f 19/2/1 12/2/1 11/2/1
f 20/2/1 12/2/1 19/2/1
f 21/2/1 14/2/1 13/2/1
f 22/2/1 14/2/1 21/2/1
f 23/2/1 16/2/1 15/2/1
f 24/2/1 16/2/1 23/2/1
f 25/2/1 18/2/1 17/2/1
f 26/2/1 18/2/1 25/2/1
f 29/5/1 28/5/1 27/5/1
f 30/5/1 28/5/1 29/5/1
f 31/5/2 32/5/2 33/5/2
f 33/5/2 32/5/2 34/5/2
f 35/2/2 36/2/2 43/2/2
f 43/2/2 36/2/2 44/2/2
f 37/2/2 38/2/2 45/2/2
f 45/2/2 38/2/2 46/2/2
f 39/2/2 40/2/2 47/2/2
f 47/2/2 40/2/2 48/2/2
f 41/2/2 42/2/2 49/2/2
f 49/2/2 42/2/2 50/2/2
f 51/2/2 52/2/2 53/2/2
f 53/2/2 52/2/2 54/2/2
f 55/4/2 56/4/2 57/4/2
f 57/4/2 56/4/2 58/4/2
f 57/3/2 58/3/2 59/3/2
f 59/3/2 58/3/2 60/3/2
f 64/4/3 62/4/3 61/4/3
f 64/3/3 63/3/3 62/3/3
f 65/3/3 63/3/3 64/3/3
f 66/4/3 64/4/3 61/4/3
f 66/5/3 65/5/3 64/5/3
f 67/5/3 65/5/3 66/5/3
f 68/4/3 66/4/3 61/4/3
f 70/4/3 68/4/3 61/4/3
f 70/2/3 69/2/3 68/2/3
f 71/2/3 69/2/3 70/2/3
f 72/4/3 70/4/3 61/4/3
f 72/1/3 71/1/3 70/1/3
f 73/1/3 71/1/3 72/1/3
f 74/4/3 72/4/3 61/4/3
f 74/2/3 73/2/3 72/2/3
f 75/2/3 73/2/3 74/2/3
f 76/4/3 74/4/3 61/4/3
f 78/4/3 76/4/3 61/4/3
f 78/5/3 77/5/3 76/5/3
f 79/5/3 77/5/3 78/5/3
f 80/4/3 78/4/3 61/4/3
f 81/3/3 79/3/3 78/3/3
f 81/4/3 78/4/3 80/4/3
f 82/3/3 79/3/3 81/3/3
f 85/1/3 84/1/3 83/1/3
f 86/1/3 84/1/3 85/1/3
f 89/1/3 88/1/3 87/1/3
f 90/1/3 88/1/3 89/1/3
f 93/1/3 92/1/3 91/1/3
f 94/1/3 92/1/3 93/1/3
f 97/1/3 96/1/3 95/1/3
f 98/1/3 96/1/3 97/1/3
f 99/1/4 100/1/4 101/1/4
f 101/1/4 100/1/4 102/1/4
f 103/1/4 104/1/4 105/1/4
f 105/1/4 104/1/4 106/1/4
f 107/1/4 108/1/4 109/1/4
f 109/1/4 108/1/4 110/1/4
f 111/1/4 112/1/4 113/1/4
f 113/1/4 112/1/4 114/1/4
f 115/4/4 116/4/4 118/4/4
f 116/3/4 117/3/4 118/3/4
f 118/3/4 117/3/4 119/3/4
f 115/4/4 118/4/4 120/4/4
f 118/5/4 119/5/4 120/5/4
f 120/5/4 119/5/4 121/5/4
f 115/4/4 120/4/4 122/4/4
f 115/4/4 122/4/4 124/4/4
f 122/2/4 123/2/4 124/2/4
f 124/2/4 123/2/4 125/2/4
f 115/4/4 124/4/4 126/4/4
f 124/1/4 125/1/4 126/1/4
f 126/1/4 125/1/4 127/1/4
f 115/4/4 126/4/4 128/4/4
f 126/2/4 127/2/4 128/2/4
f 128/2/4 127/2/4 129/2/4
f 115/4/4 128/4/4 130/4/4
f 115/4/4 130/4/4 132/4/4
f 130/5/4 131/5/4 132/5/4
f 132/5/4 131/5/4 133/5/4
f 115/4/4 132/4/4 134/4/4
f 132/3/4 133/3/4 135/3/4
f 134/4/4 132/4/4 135/4/4
f 135/3/4 133/3/4 136/3/4
f 139/4/5 138/4/5 137/4/5
f 140/4/5 138/4/5 139/4/5
f 145/4/6 146/4/6 147/4/6
f 147/4/6 146/4/6 148/4/6
f 149/4/6 150/4/6 151/4/6
f 151/4/6 150/4/6 152/4/6
f 153/4/6 154/4/6 155/4/6
f 155/4/6 154/4/6 156/4/6
f 157/4/6 158/4/6 159/4/6
f 159/4/6 158/4/6 160/4/6
f 141/4/6 142/4/6 161/4/6
f 161/4/6 142/4/6 162/4/6
f 143/4/6 144/4/6 163/4/6
f 163/4/6 144/4/6 164/4/6
f 168/2/6 169/2/6 175/2/6
f 169/1/6 170/1/6 175/1/6
f 170/2/6 171/2/6 176/2/6
f 175/1/6 170/1/6 176/1/6
f 168/2/6 175/2/6 177/2/6
f 176/2/6 171/2/6 178/2/6
f 168/2/6 177/2/6 179/2/6
f 177/1/6 178/1/6 179/1/6
f 178/2/6 171/2/6 180/2/6
f 179/1/6 178/1/6 180/1/6
f 168/2/6 179/2/6 181/2/6
f 180/2/6 171/2/6 182/2/6
f 168/2/6 181/2/6 183/2/6
f 181/1/6 182/1/6 183/1/6
f 182/2/6 171/2/6 184/2/6
f 183/1/6 182/1/6 184/1/6
f 168/2/6 183/2/6 185/2/6
f 184/2/6 171/2/6 186/2/6
f 168/2/6 185/2/6 187/2/6
f 185/1/6 186/1/6 187/1/6
f 186/2/6 171/2/6 188/2/6
f 187/1/6 186/1/6 188/1/6
f 168/2/6 187/2/6 189/2/6
f 188/2/6 171/2/6 190/2/6
f 165/3/6 166/3/6 191/3/6
f 166/5/6 167/5/6 192/5/6
f 191/3/6 166/3/6 192/3/6
f 192/5/6 167/5/6 193/5/6
f 168/2/6 189/2/6 194/2/6
f 189/1/6 190/1/6 195/1/6
f 194/2/6 189/2/6 195/2/6
f 190/2/6 171/2/6 196/2/6
f 195/1/6 190/1/6 196/1/6
f 196/2/6 171/2/6 197/2/6
f 172/5/6 173/5/6 198/5/6
f 173/3/6 174/3/6 199/3/6
f 198/5/6 173/5/6 199/5/6
f 199/3/6 174/3/6 200/3/6
