# MagicaVoxel @ Ephtracy

# group
g Asset-24

# material
mtllib Asset-24.mtl
usemtl palette

# normals
vn -1 0 0
vn 1 0 0
vn 0 0 1
vn 0 0 -1
vn 0 -1 0
vn 0 1 0

# texcoords
vt 0.00976563 0.5
vt 0.587891 0.5
vt 0.982422 0.5
vt 0.986328 0.5

# verts
v -40 0 40
v -40 0 -40
v -40 1 40
v -40 1 -40
v -13 1 13
v -13 1 -13
v -13 3 13
v -13 3 -13
v -11 3 11
v -11 3 -11
v -11 6 11
v -11 6 -11
v -10 6 10
v -10 6 8
v -10 6 -8
v -10 6 -10
v -10 9 10
v -10 9 8
v -10 9 -8
v -10 9 -10
v -4 6 4
v -4 6 -4
v -4 7 4
v -4 7 -4
v -3 7 3
v -3 7 -3
v -3 8 3
v -3 8 -3
v -1 8 1
v -1 8 -1
v -1 25 1
v -1 25 -1
v 8 6 10
v 8 6 8
v 8 6 -8
v 8 6 -10
v 8 9 10
v 8 9 8
v 8 9 -8
v 8 9 -10
v -8 6 10
v -8 6 8
v -8 6 -8
v -8 6 -10
v -8 9 10
v -8 9 8
v -8 9 -8
v -8 9 -10
v 1 8 1
v 1 8 -1
v 1 25 1
v 1 25 -1
v 3 7 3
v 3 7 -3
v 3 8 3
v 3 8 -3
v 4 6 4
v 4 6 -4
v 4 7 4
v 4 7 -4
v 10 6 10
v 10 6 8
v 10 6 -8
v 10 6 -10
v 10 9 10
v 10 9 8
v 10 9 -8
v 10 9 -10
v 11 3 11
v 11 3 -11
v 11 6 11
v 11 6 -11
v 13 1 13
v 13 1 -13
v 13 3 13
v 13 3 -13
v 40 0 40
v 40 0 -40
v 40 1 40
v 40 1 -40
v -40 0 40
v -40 1 40
v 40 0 40
v 40 1 40
v -13 1 13
v -13 3 13
v 13 1 13
v 13 3 13
v -11 3 11
v -11 6 11
v 11 3 11
v 11 6 11
v -10 6 10
v -10 9 10
v -8 6 10
v -8 9 10
v 8 6 10
v 8 9 10
v 10 6 10
v 10 9 10
v -4 6 4
v -4 7 4
v 4 6 4
v 4 7 4
v -3 7 3
v -3 8 3
v 3 7 3
v 3 8 3
v -1 8 1
v -1 25 1
v 1 8 1
v 1 25 1
v -10 6 -8
v -10 9 -8
v -8 6 -8
v -8 9 -8
v 8 6 -8
v 8 9 -8
v 10 6 -8
v 10 9 -8
v -10 6 8
v -10 9 8
v -8 6 8
v -8 9 8
v 8 6 8
v 8 9 8
v 10 6 8
v 10 9 8
v -1 8 -1
v -1 25 -1
v 1 8 -1
v 1 25 -1
v -3 7 -3
v -3 8 -3
v 3 7 -3
v 3 8 -3
v -4 6 -4
v -4 7 -4
v 4 6 -4
v 4 7 -4
v -10 6 -10
v -10 9 -10
v -8 6 -10
v -8 9 -10
v 8 6 -10
v 8 9 -10
v 10 6 -10
v 10 9 -10
v -11 3 -11
v -11 6 -11
v 11 3 -11
v 11 6 -11
v -13 1 -13
v -13 3 -13
v 13 1 -13
v 13 3 -13
v -40 0 -40
v -40 1 -40
v 40 0 -40
v 40 1 -40
v -40 0 40
v 40 0 40
v -40 0 -40
v 40 0 -40
v -40 1 40
v 40 1 40
v -13 1 13
v 13 1 13
v -13 1 -13
v 13 1 -13
v -40 1 -40
v 40 1 -40
v -13 3 13
v 13 3 13
v -11 3 11
v 11 3 11
v -11 3 -11
v 11 3 -11
v -13 3 -13
v 13 3 -13
v -11 6 11
v 11 6 11
v -10 6 10
v -8 6 10
v 8 6 10
v 10 6 10
v -10 6 8
v -8 6 8
v 8 6 8
v 10 6 8
v -4 6 4
v 4 6 4
v -4 6 -4
v 4 6 -4
v -10 6 -8
v -8 6 -8
v 8 6 -8
v 10 6 -8
v -10 6 -10
v -8 6 -10
v 8 6 -10
v 10 6 -10
v -11 6 -11
v 11 6 -11
v -4 7 4
v 4 7 4
v -3 7 3
v 3 7 3
v -3 7 -3
v 3 7 -3
v -4 7 -4
v 4 7 -4
v -3 8 3
v 3 8 3
v -1 8 1
v 1 8 1
v -1 8 -1
v 1 8 -1
v -3 8 -3
v 3 8 -3
v -10 9 10
v -8 9 10
v 8 9 10
v 10 9 10
v -10 9 8
v -8 9 8
v 8 9 8
v 10 9 8
v -10 9 -8
v -8 9 -8
v 8 9 -8
v 10 9 -8
v -10 9 -10
v -8 9 -10
v 8 9 -10
v 10 9 -10
v -1 25 1
v 1 25 1
v -1 25 -1
v 1 25 -1

# faces
f 3/3/1 2/3/1 1/3/1
f 4/3/1 2/3/1 3/3/1
f 7/4/1 6/4/1 5/4/1
f 8/4/1 6/4/1 7/4/1
f 11/4/1 10/4/1 9/4/1
f 12/4/1 10/4/1 11/4/1
f 17/1/1 14/1/1 13/1/1
f 18/1/1 14/1/1 17/1/1
f 19/1/1 16/1/1 15/1/1
f 20/1/1 16/1/1 19/1/1
f 23/1/1 22/1/1 21/1/1
f 24/1/1 22/1/1 23/1/1
f 27/1/1 26/1/1 25/1/1
f 28/1/1 26/1/1 27/1/1
f 31/1/1 30/1/1 29/1/1
f 32/1/1 30/1/1 31/1/1
f 37/1/1 34/1/1 33/1/1
f 38/1/1 34/1/1 37/1/1
f 39/1/1 36/1/1 35/1/1
f 40/1/1 36/1/1 39/1/1
f 41/1/2 42/1/2 45/1/2
f 45/1/2 42/1/2 46/1/2
f 43/1/2 44/1/2 47/1/2
f 47/1/2 44/1/2 48/1/2
f 49/1/2 50/1/2 51/1/2
f 51/1/2 50/1/2 52/1/2
f 53/1/2 54/1/2 55/1/2
f 55/1/2 54/1/2 56/1/2
f 57/1/2 58/1/2 59/1/2
f 59/1/2 58/1/2 60/1/2
f 61/1/2 62/1/2 65/1/2
f 65/1/2 62/1/2 66/1/2
f 63/1/2 64/1/2 67/1/2
f 67/1/2 64/1/2 68/1/2
f 69/4/2 70/4/2 71/4/2
f 71/4/2 70/4/2 72/4/2
f 73/4/2 74/4/2 75/4/2
f 75/4/2 74/4/2 76/4/2
f 77/3/2 78/3/2 79/3/2
f 79/3/2 78/3/2 80/3/2
f 83/3/3 82/3/3 81/3/3
f 84/3/3 82/3/3 83/3/3
f 87/4/3 86/4/3 85/4/3
f 88/4/3 86/4/3 87/4/3
f 91/4/3 90/4/3 89/4/3
f 92/4/3 90/4/3 91/4/3
f 95/1/3 94/1/3 93/1/3
f 96/1/3 94/1/3 95/1/3
f 99/1/3 98/1/3 97/1/3
f 100/1/3 98/1/3 99/1/3
f 103/1/3 102/1/3 101/1/3
f 104/1/3 102/1/3 103/1/3
f 107/1/3 106/1/3 105/1/3
f 108/1/3 106/1/3 107/1/3
f 111/1/3 110/1/3 109/1/3
f 112/1/3 110/1/3 111/1/3
f 115/1/3 114/1/3 113/1/3
f 116/1/3 114/1/3 115/1/3
f 119/1/3 118/1/3 117/1/3
f 120/1/3 118/1/3 119/1/3
f 121/1/4 122/1/4 123/1/4
f 123/1/4 122/1/4 124/1/4
f 125/1/4 126/1/4 127/1/4
f 127/1/4 126/1/4 128/1/4
f 129/1/4 130/1/4 131/1/4
f 131/1/4 130/1/4 132/1/4
f 133/1/4 134/1/4 135/1/4
f 135/1/4 134/1/4 136/1/4
f 137/1/4 138/1/4 139/1/4
f 139/1/4 138/1/4 140/1/4
f 141/1/4 142/1/4 143/1/4
f 143/1/4 142/1/4 144/1/4
f 145/1/4 146/1/4 147/1/4
f 147/1/4 146/1/4 148/1/4
f 149/4/4 150/4/4 151/4/4
f 151/4/4 150/4/4 152/4/4
f 153/4/4 154/4/4 155/4/4
f 155/4/4 154/4/4 156/4/4
f 157/3/4 158/3/4 159/3/4
f 159/3/4 158/3/4 160/3/4
f 163/3/5 162/3/5 161/3/5
f 164/3/5 162/3/5 163/3/5
f 165/3/6 166/3/6 167/3/6
f 167/3/6 166/3/6 168/3/6
f 165/3/6 167/3/6 169/3/6
f 168/3/6 166/3/6 170/3/6
f 165/3/6 169/3/6 171/3/6
f 169/3/6 170/3/6 171/3/6
f 170/3/6 166/3/6 172/3/6
f 171/3/6 170/3/6 172/3/6
f 173/4/6 174/4/6 175/4/6
f 175/4/6 174/4/6 176/4/6
f 173/4/6 175/4/6 177/4/6
f 176/4/6 174/4/6 178/4/6
f 173/4/6 177/4/6 179/4/6
f 177/4/6 178/4/6 179/4/6
f 178/4/6 174/4/6 180/4/6
f 179/4/6 178/4/6 180/4/6
f 181/4/6 182/4/6 183/4/6
f 183/4/6 182/4/6 184/4/6
f 184/4/6 182/4/6 185/4/6
f 185/4/6 182/4/6 186/4/6
f 181/4/6 183/4/6 187/4/6
f 184/2/6 185/2/6 188/2/6
f 188/2/6 185/2/6 189/2/6
f 186/4/6 182/4/6 190/4/6
f 188/2/6 189/2/6 191/2/6
f 189/2/6 190/2/6 191/2/6
f 187/2/6 188/2/6 191/2/6
f 191/2/6 190/2/6 192/2/6
f 187/2/6 191/2/6 193/2/6
f 192/2/6 190/2/6 194/2/6
f 181/4/6 187/4/6 195/4/6
f 193/2/6 194/2/6 195/2/6
f 187/2/6 193/2/6 195/2/6
f 195/2/6 194/2/6 196/2/6
f 194/2/6 190/2/6 197/2/6
f 196/2/6 194/2/6 197/2/6
f 190/4/6 182/4/6 198/4/6
f 197/2/6 190/2/6 198/2/6
f 181/4/6 195/4/6 199/4/6
f 196/2/6 197/2/6 200/2/6
f 200/2/6 197/2/6 201/2/6
f 198/4/6 182/4/6 202/4/6
f 181/4/6 199/4/6 203/4/6
f 201/4/6 202/4/6 203/4/6
f 200/4/6 201/4/6 203/4/6
f 199/4/6 200/4/6 203/4/6
f 202/4/6 182/4/6 204/4/6
f 203/4/6 202/4/6 204/4/6
f 205/1/6 206/1/6 207/1/6
f 207/1/6 206/1/6 208/1/6
f 205/1/6 207/1/6 209/1/6
f 208/1/6 206/1/6 210/1/6
f 205/1/6 209/1/6 211/1/6
f 209/1/6 210/1/6 211/1/6
f 210/1/6 206/1/6 212/1/6
f 211/1/6 210/1/6 212/1/6
f 213/1/6 214/1/6 215/1/6
f 215/1/6 214/1/6 216/1/6
f 213/1/6 215/1/6 217/1/6
f 216/1/6 214/1/6 218/1/6
f 213/1/6 217/1/6 219/1/6
f 217/1/6 218/1/6 219/1/6
f 218/1/6 214/1/6 220/1/6
f 219/1/6 218/1/6 220/1/6
f 221/1/6 222/1/6 225/1/6
f 225/1/6 222/1/6 226/1/6
f 223/1/6 224/1/6 227/1/6
f 227/1/6 224/1/6 228/1/6
f 229/1/6 230/1/6 233/1/6
f 233/1/6 230/1/6 234/1/6
f 231/1/6 232/1/6 235/1/6
f 235/1/6 232/1/6 236/1/6
f 237/1/6 238/1/6 239/1/6
f 239/1/6 238/1/6 240/1/6
