# MagicaVoxel @ Ephtracy

# group
g Asset-31

# material
mtllib Asset-31.mtl
usemtl palette

# normals
vn -1 0 0
vn 1 0 0
vn 0 0 1
vn 0 0 -1
vn 0 -1 0
vn 0 1 0

# texcoords
vt 0.369141 0.5
vt 0.970703 0.5
vt 0.982422 0.5
vt 0.986328 0.5
vt 0.990234 0.5

# verts
v -20 38 20
v -20 38 -20
v -20 39 20
v -20 39 -20
v -20 40 20
v -20 40 -20
v -10 39 -1
v -10 39 -20
v -10 55 -1
v -10 55 -20
v -6 39 20
v -6 39 -1
v -6 40 20
v -6 40 -1
v 4 39 19
v 4 39 11
v 4 39 9
v 4 39 1
v 4 40 19
v 4 40 11
v 4 40 9
v 4 40 1
v 16 39 20
v 16 39 -20
v 16 40 20
v 16 40 -20
v -16 39 20
v -16 39 -20
v -16 40 20
v -16 40 -20
v -4 39 19
v -4 39 11
v -4 39 9
v -4 39 1
v -4 40 19
v -4 40 11
v -4 40 9
v -4 40 1
v 6 39 20
v 6 39 -1
v 6 40 20
v 6 40 -1
v 10 39 -1
v 10 39 -20
v 10 55 -1
v 10 55 -20
v 20 38 20
v 20 38 -20
v 20 39 20
v 20 39 -20
v 20 40 20
v 20 40 -20
v -20 38 20
v -20 39 20
v -20 40 20
v -17 39 20
v -17 40 20
v -16 39 20
v -16 40 20
v -6 39 20
v -6 40 20
v -4 39 20
v -4 40 20
v 4 39 20
v 4 40 20
v 6 39 20
v 6 40 20
v 16 39 20
v 16 40 20
v 17 39 20
v 17 40 20
v 20 38 20
v 20 39 20
v 20 40 20
v -4 39 11
v -4 40 11
v 4 39 11
v 4 40 11
v -4 39 1
v -4 40 1
v 4 39 1
v 4 40 1
v -10 39 -1
v -10 55 -1
v -8 39 -1
v -8 53 -1
v -6 39 -1
v -6 40 -1
v -4 40 -1
v 4 40 -1
v 6 39 -1
v 6 40 -1
v 8 39 -1
v 8 53 -1
v 10 39 -1
v 10 55 -1
v -4 39 19
v -4 40 19
v 4 39 19
v 4 40 19
v -4 39 9
v -4 40 9
v 4 39 9
v 4 40 9
v -20 38 -20
v -20 39 -20
v -20 40 -20
v -17 39 -20
v -17 40 -20
v -16 39 -20
v -16 40 -20
v -10 39 -20
v -10 55 -20
v 10 39 -20
v 10 55 -20
v 16 39 -20
v 16 40 -20
v 17 39 -20
v 17 40 -20
v 20 38 -20
v 20 39 -20
v 20 40 -20
v -20 38 20
v 20 38 20
v -20 38 -20
v 20 38 -20
v -16 39 20
v -6 39 20
v 6 39 20
v 16 39 20
v -4 39 19
v 4 39 19
v -4 39 11
v 4 39 11
v -4 39 9
v 4 39 9
v -4 39 1
v 4 39 1
v -10 39 -1
v -8 39 -1
v -6 39 -1
v 6 39 -1
v 8 39 -1
v 10 39 -1
v -16 39 -20
v -10 39 -20
v 10 39 -20
v 16 39 -20
v -20 40 20
v -17 40 20
v -16 40 20
v -6 40 20
v -4 40 20
v 4 40 20
v 6 40 20
v 16 40 20
v 17 40 20
v 20 40 20
v -4 40 19
v 4 40 19
v -4 40 11
v 4 40 11
v -4 40 9
v 4 40 9
v -4 40 1
v 4 40 1
v -6 40 -1
v -4 40 -1
v 4 40 -1
v 6 40 -1
v -20 40 -20
v -17 40 -20
v -16 40 -20
v 16 40 -20
v 17 40 -20
v 20 40 -20
v -10 55 -1
v 10 55 -1
v -10 55 -20
v 10 55 -20

# faces
f 3/4/1 2/4/1 1/4/1
f 4/4/1 2/4/1 3/4/1
f 5/3/1 4/3/1 3/3/1
f 6/3/1 4/3/1 5/3/1
f 9/4/1 8/4/1 7/4/1
f 10/4/1 8/4/1 9/4/1
f 13/2/1 12/2/1 11/2/1
f 14/2/1 12/2/1 13/2/1
f 19/2/1 16/2/1 15/2/1
f 20/2/1 16/2/1 19/2/1
f 21/2/1 18/2/1 17/2/1
f 22/2/1 18/2/1 21/2/1
f 25/5/1 24/5/1 23/5/1
f 26/5/1 24/5/1 25/5/1
f 27/5/2 28/5/2 29/5/2
f 29/5/2 28/5/2 30/5/2
f 31/2/2 32/2/2 35/2/2
f 35/2/2 32/2/2 36/2/2
f 33/2/2 34/2/2 37/2/2
f 37/2/2 34/2/2 38/2/2
f 39/2/2 40/2/2 41/2/2
f 41/2/2 40/2/2 42/2/2
f 43/4/2 44/4/2 45/4/2
f 45/4/2 44/4/2 46/4/2
f 47/4/2 48/4/2 49/4/2
f 49/4/2 48/4/2 50/4/2
f 49/3/2 50/3/2 51/3/2
f 51/3/2 50/3/2 52/3/2
f 56/4/3 54/4/3 53/4/3
f 56/3/3 55/3/3 54/3/3
f 57/3/3 55/3/3 56/3/3
f 58/4/3 56/4/3 53/4/3
f 58/5/3 57/5/3 56/5/3
f 59/5/3 57/5/3 58/5/3
f 60/4/3 58/4/3 53/4/3
f 62/4/3 60/4/3 53/4/3
f 62/2/3 61/2/3 60/2/3
f 63/2/3 61/2/3 62/2/3
f 64/4/3 62/4/3 53/4/3
f 64/1/3 63/1/3 62/1/3
f 65/1/3 63/1/3 64/1/3
f 66/4/3 64/4/3 53/4/3
f 66/2/3 65/2/3 64/2/3
f 67/2/3 65/2/3 66/2/3
f 68/4/3 66/4/3 53/4/3
f 70/4/3 68/4/3 53/4/3
f 70/5/3 69/5/3 68/5/3
f 71/5/3 69/5/3 70/5/3
f 72/4/3 70/4/3 53/4/3
f 73/3/3 71/3/3 70/3/3
f 73/4/3 70/4/3 72/4/3
f 74/3/3 71/3/3 73/3/3
f 77/1/3 76/1/3 75/1/3
f 78/1/3 76/1/3 77/1/3
f 81/1/3 80/1/3 79/1/3
f 82/1/3 80/1/3 81/1/3
f 85/4/3 84/4/3 83/4/3
f 86/4/3 84/4/3 85/4/3
f 87/5/3 86/5/3 85/5/3
f 88/5/3 86/5/3 87/5/3
f 89/5/3 86/5/3 88/5/3
f 90/5/3 86/5/3 89/5/3
f 92/5/3 86/5/3 90/5/3
f 93/5/3 92/5/3 91/5/3
f 94/4/3 84/4/3 86/4/3
f 94/5/3 92/5/3 93/5/3
f 94/5/3 86/5/3 92/5/3
f 95/4/3 94/4/3 93/4/3
f 96/4/3 84/4/3 94/4/3
f 96/4/3 94/4/3 95/4/3
f 97/1/4 98/1/4 99/1/4
f 99/1/4 98/1/4 100/1/4
f 101/1/4 102/1/4 103/1/4
f 103/1/4 102/1/4 104/1/4
f 105/4/4 106/4/4 108/4/4
f 106/3/4 107/3/4 108/3/4
f 108/3/4 107/3/4 109/3/4
f 105/4/4 108/4/4 110/4/4
f 108/5/4 109/5/4 110/5/4
f 110/5/4 109/5/4 111/5/4
f 105/4/4 110/4/4 112/4/4
f 105/4/4 112/4/4 114/4/4
f 112/4/4 113/4/4 114/4/4
f 114/4/4 113/4/4 115/4/4
f 105/4/4 114/4/4 116/4/4
f 105/4/4 116/4/4 118/4/4
f 116/5/4 117/5/4 118/5/4
f 118/5/4 117/5/4 119/5/4
f 105/4/4 118/4/4 120/4/4
f 118/3/4 119/3/4 121/3/4
f 120/4/4 118/4/4 121/4/4
f 121/3/4 119/3/4 122/3/4
f 125/4/5 124/4/5 123/4/5
f 126/4/5 124/4/5 125/4/5
f 131/4/6 132/4/6 133/4/6
f 133/4/6 132/4/6 134/4/6
f 135/4/6 136/4/6 137/4/6
f 137/4/6 136/4/6 138/4/6
f 127/4/6 128/4/6 139/4/6
f 139/4/6 128/4/6 140/4/6
f 140/4/6 128/4/6 141/4/6
f 129/4/6 130/4/6 142/4/6
f 142/4/6 130/4/6 143/4/6
f 143/4/6 130/4/6 144/4/6
f 127/4/6 139/4/6 145/4/6
f 145/4/6 139/4/6 146/4/6
f 144/4/6 130/4/6 147/4/6
f 147/4/6 130/4/6 148/4/6
f 152/2/6 153/2/6 159/2/6
f 153/1/6 154/1/6 159/1/6
f 154/2/6 155/2/6 160/2/6
f 159/1/6 154/1/6 160/1/6
f 152/2/6 159/2/6 161/2/6
f 160/2/6 155/2/6 162/2/6
f 152/2/6 161/2/6 163/2/6
f 161/1/6 162/1/6 163/1/6
f 162/2/6 155/2/6 164/2/6
f 163/1/6 162/1/6 164/1/6
f 152/2/6 163/2/6 165/2/6
f 164/2/6 155/2/6 166/2/6
f 152/2/6 165/2/6 167/2/6
f 165/1/6 166/1/6 168/1/6
f 167/2/6 165/2/6 168/2/6
f 166/2/6 155/2/6 169/2/6
f 168/1/6 166/1/6 169/1/6
f 169/2/6 155/2/6 170/2/6
f 149/3/6 150/3/6 171/3/6
f 150/5/6 151/5/6 172/5/6
f 171/3/6 150/3/6 172/3/6
f 172/5/6 151/5/6 173/5/6
f 156/5/6 157/5/6 174/5/6
f 157/3/6 158/3/6 175/3/6
f 174/5/6 157/5/6 175/5/6
f 175/3/6 158/3/6 176/3/6
f 177/4/6 178/4/6 179/4/6
f 179/4/6 178/4/6 180/4/6
