# MagicaVoxel @ Ephtracy

# group
g Asset-11

# material
mtllib Asset-11.mtl
usemtl palette

# normals
vn -1 0 0
vn 1 0 0
vn 0 0 1
vn 0 0 -1
vn 0 -1 0
vn 0 1 0

# texcoords
vt 0.896484 0.5
vt 0.962891 0.5
vt 0.974609 0.5
vt 0.982422 0.5

# verts
v -40 0 40
v -40 0 -40
v -40 1 40
v -40 1 -40
v -40 17 40
v -40 17 -40
v -40 28 40
v -40 28 -40
v -38 1 38
v -38 1 37
v -38 1 -37
v -38 1 -38
v -38 14 37
v -38 14 -37
v -38 17 38
v -38 17 -38
v -32 28 -18
v -32 28 -32
v -32 30 -18
v -32 30 -32
v -28 30 -22
v -28 30 -30
v -28 32 -22
v -28 32 -30
v -22 28 20
v -22 28 18
v -22 28 17
v -22 28 15
v -22 28 14
v -22 28 12
v -22 29 20
v -22 29 18
v -22 29 17
v -22 29 15
v -22 29 14
v -22 29 12
v 6 28 21
v 6 28 13
v 6 29 21
v 6 29 13
v 20 28 13
v 20 28 -24
v 20 29 13
v 20 29 -24
v -20 28 20
v -20 28 18
v -20 28 17
v -20 28 15
v -20 28 14
v -20 28 12
v -20 29 20
v -20 29 18
v -20 29 17
v -20 29 15
v -20 29 14
v -20 29 12
v -18 30 -22
v -18 30 -30
v -18 32 -22
v -18 32 -30
v -15 28 -18
v -15 28 -24
v -15 28 -25
v -15 28 -32
v -15 29 -24
v -15 29 -25
v -15 30 -18
v -15 30 -32
v 19 28 21
v 19 28 14
v 19 29 21
v 19 29 14
v 21 28 14
v 21 28 -25
v 21 29 14
v 21 29 -25
v 38 1 38
v 38 1 37
v 38 1 23
v 38 1 22
v 38 1 6
v 38 1 -7
v 38 1 -23
v 38 1 -24
v 38 1 -37
v 38 1 -38
v 38 10 6
v 38 10 -7
v 38 13 6
v 38 13 -7
v 38 14 37
v 38 14 23
v 38 14 22
v 38 14 -23
v 38 14 -24
v 38 14 -37
v 38 17 38
v 38 17 -38
v 40 0 40
v 40 0 -40
v 40 1 40
v 40 1 6
v 40 1 -7
v 40 1 -40
v 40 10 6
v 40 10 -7
v 40 13 6
v 40 13 -7
v 40 17 40
v 40 17 -40
v 40 28 40
v 40 28 -40
v -40 0 40
v -40 1 40
v -40 17 40
v -40 28 40
v 40 0 40
v 40 1 40
v 40 17 40
v 40 28 40
v -38 1 38
v -38 17 38
v 38 1 38
v 38 17 38
v 6 28 21
v 6 29 21
v 19 28 21
v 19 29 21
v -22 28 20
v -22 29 20
v -20 28 20
v -20 29 20
v -22 28 17
v -22 29 17
v -20 28 17
v -20 29 17
v -22 28 14
v -22 29 14
v -20 28 14
v -20 29 14
v 19 28 14
v 19 29 14
v 21 28 14
v 21 29 14
v 38 1 6
v 38 10 6
v 38 13 6
v 40 1 6
v 40 10 6
v 40 13 6
v -32 28 -18
v -32 30 -18
v -15 28 -18
v -15 30 -18
v -28 30 -22
v -28 32 -22
v -18 30 -22
v -18 32 -22
v -15 28 -24
v -15 29 -24
v 20 28 -24
v 20 29 -24
v -22 28 18
v -22 29 18
v -20 28 18
v -20 29 18
v -22 28 15
v -22 29 15
v -20 28 15
v -20 29 15
v 6 28 13
v 6 29 13
v 20 28 13
v 20 29 13
v -22 28 12
v -22 29 12
v -20 28 12
v -20 29 12
v 38 1 -7
v 38 10 -7
v 38 13 -7
v 40 1 -7
v 40 10 -7
v 40 13 -7
v -15 28 -25
v -15 29 -25
v 21 28 -25
v 21 29 -25
v -28 30 -30
v -28 32 -30
v -18 30 -30
v -18 32 -30
v -32 28 -32
v -32 30 -32
v -15 28 -32
v -15 30 -32
v -38 1 -38
v -38 17 -38
v -37 1 -38
v -37 14 -38
v 37 1 -38
v 37 14 -38
v 38 1 -38
v 38 17 -38
v -40 0 -40
v -40 1 -40
v -40 17 -40
v -40 28 -40
v 40 0 -40
v 40 1 -40
v 40 17 -40
v 40 28 -40
v -40 0 40
v 40 0 40
v -40 0 -40
v 40 0 -40
v -40 17 40
v 40 17 40
v -38 17 38
v 38 17 38
v -38 17 -38
v 38 17 -38
v -40 17 -40
v 40 17 -40
v -40 1 40
v 40 1 40
v -38 1 38
v 38 1 38
v -38 1 37
v 38 1 37
v 38 1 23
v 38 1 22
v 38 1 6
v 40 1 6
v 38 1 -7
v 40 1 -7
v 38 1 -23
v 38 1 -24
v -38 1 -37
v 38 1 -37
v -38 1 -38
v -37 1 -38
v 37 1 -38
v 38 1 -38
v -40 1 -40
v 40 1 -40
v 38 13 6
v 40 13 6
v 38 13 -7
v 40 13 -7
v -40 28 40
v 40 28 40
v 6 28 21
v 19 28 21
v -22 28 20
v -20 28 20
v -22 28 18
v -20 28 18
v -22 28 17
v -20 28 17
v -22 28 15
v -20 28 15
v -22 28 14
v -20 28 14
v 19 28 14
v 21 28 14
v 6 28 13
v 20 28 13
v -22 28 12
v -20 28 12
v -32 28 -18
v -15 28 -18
v -15 28 -24
v 20 28 -24
v -15 28 -25
v 21 28 -25
v -32 28 -32
v -15 28 -32
v -40 28 -40
v 40 28 -40
v 6 29 21
v 19 29 21
v -22 29 20
v -20 29 20
v -22 29 18
v -20 29 18
v -22 29 17
v -20 29 17
v -22 29 15
v -20 29 15
v -22 29 14
v -20 29 14
v 19 29 14
v 21 29 14
v 6 29 13
v 20 29 13
v -22 29 12
v -20 29 12
v -15 29 -24
v 20 29 -24
v -15 29 -25
v 21 29 -25
v -32 30 -18
v -15 30 -18
v -28 30 -22
v -18 30 -22
v -28 30 -30
v -18 30 -30
v -32 30 -32
v -15 30 -32
v -28 32 -22
v -18 32 -22
v -28 32 -30
v -18 32 -30

# faces
f 3/4/1 2/4/1 1/4/1
f 4/4/1 2/4/1 3/4/1
f 7/1/1 6/1/1 5/1/1
f 8/1/1 6/1/1 7/1/1
f 13/2/1 10/2/1 9/2/1
f 13/3/1 11/3/1 10/3/1
f 14/2/1 12/2/1 11/2/1
f 14/3/1 11/3/1 13/3/1
f 15/2/1 13/2/1 9/2/1
f 15/2/1 14/2/1 13/2/1
f 16/2/1 12/2/1 14/2/1
f 16/2/1 14/2/1 15/2/1
f 19/3/1 18/3/1 17/3/1
f 20/3/1 18/3/1 19/3/1
f 23/3/1 22/3/1 21/3/1
f 24/3/1 22/3/1 23/3/1
f 31/3/1 26/3/1 25/3/1
f 32/3/1 26/3/1 31/3/1
f 33/3/1 28/3/1 27/3/1
f 34/3/1 28/3/1 33/3/1
f 35/3/1 30/3/1 29/3/1
f 36/3/1 30/3/1 35/3/1
f 39/3/1 38/3/1 37/3/1
f 40/3/1 38/3/1 39/3/1
f 43/3/1 42/3/1 41/3/1
f 44/3/1 42/3/1 43/3/1
f 45/3/2 46/3/2 51/3/2
f 51/3/2 46/3/2 52/3/2
f 47/3/2 48/3/2 53/3/2
f 53/3/2 48/3/2 54/3/2
f 49/3/2 50/3/2 55/3/2
f 55/3/2 50/3/2 56/3/2
f 57/3/2 58/3/2 59/3/2
f 59/3/2 58/3/2 60/3/2
f 61/3/2 62/3/2 65/3/2
f 63/3/2 64/3/2 66/3/2
f 61/3/2 65/3/2 67/3/2
f 65/3/2 66/3/2 67/3/2
f 66/3/2 64/3/2 68/3/2
f 67/3/2 66/3/2 68/3/2
f 69/3/2 70/3/2 71/3/2
f 71/3/2 70/3/2 72/3/2
f 73/3/2 74/3/2 75/3/2
f 75/3/2 74/3/2 76/3/2
f 80/3/2 81/3/2 87/3/2
f 82/3/2 83/3/2 88/3/2
f 80/3/2 87/3/2 89/3/2
f 88/3/2 83/3/2 90/3/2
f 77/2/2 78/2/2 91/2/2
f 78/3/2 79/3/2 91/3/2
f 79/2/2 80/2/2 92/2/2
f 91/3/2 79/3/2 92/3/2
f 89/3/2 90/3/2 93/3/2
f 92/2/2 80/2/2 93/2/2
f 80/3/2 89/3/2 93/3/2
f 90/3/2 83/3/2 94/3/2
f 93/3/2 90/3/2 94/3/2
f 83/2/2 84/2/2 94/2/2
f 84/3/2 85/3/2 95/3/2
f 94/2/2 84/2/2 95/2/2
f 85/2/2 86/2/2 96/2/2
f 95/3/2 85/3/2 96/3/2
f 91/2/2 92/2/2 97/2/2
f 92/2/2 93/2/2 97/2/2
f 95/2/2 96/2/2 97/2/2
f 93/2/2 94/2/2 97/2/2
f 77/2/2 91/2/2 97/2/2
f 94/2/2 95/2/2 97/2/2
f 96/2/2 86/2/2 98/2/2
f 97/2/2 96/2/2 98/2/2
f 99/4/2 100/4/2 101/4/2
f 101/4/2 100/4/2 102/4/2
f 102/4/2 100/4/2 103/4/2
f 103/4/2 100/4/2 104/4/2
f 102/2/2 103/2/2 105/2/2
f 105/2/2 103/2/2 106/2/2
f 105/1/2 106/1/2 107/1/2
f 107/1/2 106/1/2 108/1/2
f 109/1/2 110/1/2 111/1/2
f 111/1/2 110/1/2 112/1/2
f 117/4/3 114/4/3 113/4/3
f 118/4/3 114/4/3 117/4/3
f 119/1/3 116/1/3 115/1/3
f 120/1/3 116/1/3 119/1/3
f 123/2/3 122/2/3 121/2/3
f 124/2/3 122/2/3 123/2/3
f 127/3/3 126/3/3 125/3/3
f 128/3/3 126/3/3 127/3/3
f 131/3/3 130/3/3 129/3/3
f 132/3/3 130/3/3 131/3/3
f 135/3/3 134/3/3 133/3/3
f 136/3/3 134/3/3 135/3/3
f 139/3/3 138/3/3 137/3/3
f 140/3/3 138/3/3 139/3/3
f 143/3/3 142/3/3 141/3/3
f 144/3/3 142/3/3 143/3/3
f 148/2/3 146/2/3 145/2/3
f 149/1/3 147/1/3 146/1/3
f 149/2/3 146/2/3 148/2/3
f 150/1/3 147/1/3 149/1/3
f 153/3/3 152/3/3 151/3/3
f 154/3/3 152/3/3 153/3/3
f 157/3/3 156/3/3 155/3/3
f 158/3/3 156/3/3 157/3/3
f 161/3/3 160/3/3 159/3/3
f 162/3/3 160/3/3 161/3/3
f 163/3/4 164/3/4 165/3/4
f 165/3/4 164/3/4 166/3/4
f 167/3/4 168/3/4 169/3/4
f 169/3/4 168/3/4 170/3/4
f 171/3/4 172/3/4 173/3/4
f 173/3/4 172/3/4 174/3/4
f 175/3/4 176/3/4 177/3/4
f 177/3/4 176/3/4 178/3/4
f 179/2/4 180/2/4 182/2/4
f 180/1/4 181/1/4 183/1/4
f 182/2/4 180/2/4 183/2/4
f 183/1/4 181/1/4 184/1/4
f 185/3/4 186/3/4 187/3/4
f 187/3/4 186/3/4 188/3/4
f 189/3/4 190/3/4 191/3/4
f 191/3/4 190/3/4 192/3/4
f 193/3/4 194/3/4 195/3/4
f 195/3/4 194/3/4 196/3/4
f 197/2/4 198/2/4 199/2/4
f 199/2/4 198/2/4 200/2/4
f 199/3/4 200/3/4 201/3/4
f 200/2/4 198/2/4 202/2/4
f 201/3/4 200/3/4 202/3/4
f 201/2/4 202/2/4 203/2/4
f 202/2/4 198/2/4 204/2/4
f 203/2/4 202/2/4 204/2/4
f 205/4/4 206/4/4 209/4/4
f 209/4/4 206/4/4 210/4/4
f 207/1/4 208/1/4 211/1/4
f 211/1/4 208/1/4 212/1/4
f 215/4/5 214/4/5 213/4/5
f 216/4/5 214/4/5 215/4/5
f 219/1/5 218/1/5 217/1/5
f 220/1/5 218/1/5 219/1/5
f 221/1/5 219/1/5 217/1/5
f 222/1/5 218/1/5 220/1/5
f 223/1/5 221/1/5 217/1/5
f 223/1/5 222/1/5 221/1/5
f 224/1/5 218/1/5 222/1/5
f 224/1/5 222/1/5 223/1/5
f 225/4/6 226/4/6 227/4/6
f 227/4/6 226/4/6 228/4/6
f 225/4/6 227/4/6 229/4/6
f 228/4/6 226/4/6 230/4/6
f 230/4/6 226/4/6 231/4/6
f 231/4/6 226/4/6 232/4/6
f 232/4/6 226/4/6 233/4/6
f 233/4/6 226/4/6 234/4/6
f 235/4/6 236/4/6 237/4/6
f 237/4/6 236/4/6 238/4/6
f 225/4/6 229/4/6 239/4/6
f 238/4/6 236/4/6 240/4/6
f 225/4/6 239/4/6 241/4/6
f 240/4/6 236/4/6 244/4/6
f 242/4/6 243/4/6 245/4/6
f 243/4/6 244/4/6 245/4/6
f 225/4/6 241/4/6 245/4/6
f 241/4/6 242/4/6 245/4/6
f 244/4/6 236/4/6 246/4/6
f 245/4/6 244/4/6 246/4/6
f 247/1/6 248/1/6 249/1/6
f 249/1/6 248/1/6 250/1/6
f 251/1/6 252/1/6 253/1/6
f 253/1/6 252/1/6 254/1/6
f 251/1/6 253/1/6 255/1/6
f 255/1/6 253/1/6 256/1/6
f 251/1/6 255/1/6 257/1/6
f 256/1/6 253/1/6 258/1/6
f 251/1/6 257/1/6 259/1/6
f 257/1/6 258/1/6 259/1/6
f 258/1/6 253/1/6 260/1/6
f 259/1/6 258/1/6 260/1/6
f 251/1/6 259/1/6 261/1/6
f 260/1/6 253/1/6 262/1/6
f 251/1/6 261/1/6 263/1/6
f 261/1/6 262/1/6 263/1/6
f 262/1/6 253/1/6 264/1/6
f 263/1/6 262/1/6 264/1/6
f 254/1/6 252/1/6 265/1/6
f 265/1/6 252/1/6 266/1/6
f 264/1/6 253/1/6 267/1/6
f 251/1/6 263/1/6 269/1/6
f 267/1/6 268/1/6 270/1/6
f 264/1/6 267/1/6 270/1/6
f 251/1/6 269/1/6 271/1/6
f 269/1/6 270/1/6 271/1/6
f 270/1/6 268/1/6 272/1/6
f 271/1/6 270/1/6 272/1/6
f 272/1/6 268/1/6 273/1/6
f 273/1/6 268/1/6 274/1/6
f 266/1/6 252/1/6 276/1/6
f 251/1/6 271/1/6 277/1/6
f 275/1/6 276/1/6 278/1/6
f 251/1/6 277/1/6 279/1/6
f 277/1/6 278/1/6 279/1/6
f 278/1/6 276/1/6 280/1/6
f 279/1/6 278/1/6 280/1/6
f 276/1/6 252/1/6 280/1/6
f 283/3/6 284/3/6 285/3/6
f 285/3/6 284/3/6 286/3/6
f 287/3/6 288/3/6 289/3/6
f 289/3/6 288/3/6 290/3/6
f 281/3/6 282/3/6 293/3/6
f 281/3/6 293/3/6 295/3/6
f 293/3/6 294/3/6 295/3/6
f 295/3/6 294/3/6 296/3/6
f 291/3/6 292/3/6 297/3/6
f 297/3/6 292/3/6 298/3/6
f 296/3/6 294/3/6 300/3/6
f 299/3/6 300/3/6 301/3/6
f 300/3/6 294/3/6 302/3/6
f 301/3/6 300/3/6 302/3/6
f 303/3/6 304/3/6 305/3/6
f 305/3/6 304/3/6 306/3/6
f 303/3/6 305/3/6 307/3/6
f 306/3/6 304/3/6 308/3/6
f 303/3/6 307/3/6 309/3/6
f 307/3/6 308/3/6 309/3/6
f 308/3/6 304/3/6 310/3/6
f 309/3/6 308/3/6 310/3/6
f 311/3/6 312/3/6 313/3/6
f 313/3/6 312/3/6 314/3/6
