# MagicaVoxel @ Ephtracy

# group
g Road_straight-11

# material
mtllib Road_straight-11.mtl
usemtl palette

# normals
vn -1 0 0
vn 1 0 0
vn 0 0 1
vn 0 0 -1
vn 0 -1 0
vn 0 1 0

# texcoords
vt 0.896484 0.5
vt 0.962891 0.5
vt 0.974609 0.5
vt 0.982422 0.5

# verts
v -40 0 40
v -40 0 -40
v -40 1 40
v -40 1 -40
v -40 17 40
v -40 17 -40
v -40 28 40
v -40 28 -40
v -38 1 38
v -38 1 -38
v -38 17 38
v -38 17 -38
v -21 28 19
v -21 28 6
v -21 29 19
v -21 29 6
v -20 28 -20
v -20 28 -22
v -20 29 -20
v -20 29 -22
v -17 28 -20
v -17 28 -22
v -17 29 -20
v -17 29 -22
v -14 28 21
v -14 28 19
v -14 28 -20
v -14 28 -22
v -14 29 21
v -14 29 19
v -14 29 -20
v -14 29 -22
v -6 1 40
v -6 1 38
v -6 10 40
v -6 10 38
v -6 13 40
v -6 13 38
v 18 28 -15
v 18 28 -32
v 18 30 -15
v 18 30 -32
v 22 30 -18
v 22 30 -28
v 22 32 -18
v 22 32 -28
v 24 28 20
v 24 28 -15
v 24 29 20
v 24 29 -15
v -18 28 -20
v -18 28 -22
v -18 29 -20
v -18 29 -22
v -15 28 -20
v -15 28 -22
v -15 29 -20
v -15 29 -22
v -13 28 20
v -13 28 6
v -13 29 20
v -13 29 6
v -12 28 -20
v -12 28 -22
v -12 29 -20
v -12 29 -22
v 7 1 40
v 7 1 38
v 7 10 40
v 7 10 38
v 7 13 40
v 7 13 38
v 25 28 21
v 25 28 -15
v 25 29 21
v 25 29 -15
v 30 30 -18
v 30 30 -28
v 30 32 -18
v 30 32 -28
v 32 28 -15
v 32 28 -32
v 32 30 -15
v 32 30 -32
v 38 1 38
v 38 1 37
v 38 1 -37
v 38 1 -38
v 38 14 37
v 38 14 -37
v 38 17 38
v 38 17 -38
v 40 0 40
v 40 0 -40
v 40 1 40
v 40 1 -40
v 40 17 40
v 40 17 -40
v 40 28 40
v 40 28 -40
v -40 0 40
v -40 1 40
v -40 17 40
v -40 28 40
v -6 1 40
v -6 10 40
v -6 13 40
v 7 1 40
v 7 10 40
v 7 13 40
v 40 0 40
v 40 1 40
v 40 17 40
v 40 28 40
v -38 1 38
v -38 17 38
v -37 1 38
v -37 14 38
v -23 1 38
v -23 14 38
v -22 1 38
v -22 14 38
v -6 1 38
v -6 10 38
v -6 13 38
v 7 1 38
v 7 10 38
v 7 13 38
v 23 1 38
v 23 14 38
v 24 1 38
v 24 14 38
v 37 1 38
v 37 14 38
v 38 1 38
v 38 17 38
v -14 28 21
v -14 29 21
v 25 28 21
v 25 29 21
v -21 28 19
v -21 29 19
v -14 28 19
v -14 29 19
v 18 28 -15
v 18 30 -15
v 24 28 -15
v 24 29 -15
v 25 28 -15
v 25 29 -15
v 32 28 -15
v 32 30 -15
v 22 30 -18
v 22 32 -18
v 30 30 -18
v 30 32 -18
v -20 28 -20
v -20 29 -20
v -18 28 -20
v -18 29 -20
v -17 28 -20
v -17 29 -20
v -15 28 -20
v -15 29 -20
v -14 28 -20
v -14 29 -20
v -12 28 -20
v -12 29 -20
v -13 28 20
v -13 29 20
v 24 28 20
v 24 29 20
v -21 28 6
v -21 29 6
v -13 28 6
v -13 29 6
v -20 28 -22
v -20 29 -22
v -18 28 -22
v -18 29 -22
v -17 28 -22
v -17 29 -22
v -15 28 -22
v -15 29 -22
v -14 28 -22
v -14 29 -22
v -12 28 -22
v -12 29 -22
v 22 30 -28
v 22 32 -28
v 30 30 -28
v 30 32 -28
v 18 28 -32
v 18 30 -32
v 32 28 -32
v 32 30 -32
v -38 1 -38
v -38 17 -38
v -37 1 -38
v -37 14 -38
v 37 1 -38
v 37 14 -38
v 38 1 -38
v 38 17 -38
v -40 0 -40
v -40 1 -40
v -40 17 -40
v -40 28 -40
v 40 0 -40
v 40 1 -40
v 40 17 -40
v 40 28 -40
v -40 0 40
v 40 0 40
v -40 0 -40
v 40 0 -40
v -40 17 40
v 40 17 40
v -38 17 38
v 38 17 38
v -38 17 -38
v 38 17 -38
v -40 17 -40
v 40 17 -40
v -40 1 40
v -6 1 40
v 7 1 40
v 40 1 40
v -38 1 38
v -37 1 38
v -23 1 38
v -22 1 38
v -6 1 38
v 7 1 38
v 23 1 38
v 24 1 38
v 37 1 38
v 38 1 38
v 38 1 37
v 38 1 -37
v -38 1 -38
v -37 1 -38
v 37 1 -38
v 38 1 -38
v -40 1 -40
v 40 1 -40
v -6 13 40
v 7 13 40
v -6 13 38
v 7 13 38
v -40 28 40
v 40 28 40
v -14 28 21
v 25 28 21
v -13 28 20
v 24 28 20
v -21 28 19
v -14 28 19
v -21 28 6
v -13 28 6
v 18 28 -15
v 24 28 -15
v 25 28 -15
v 32 28 -15
v -20 28 -20
v -18 28 -20
v -17 28 -20
v -15 28 -20
v -14 28 -20
v -12 28 -20
v -20 28 -22
v -18 28 -22
v -17 28 -22
v -15 28 -22
v -14 28 -22
v -12 28 -22
v 18 28 -32
v 32 28 -32
v -40 28 -40
v 40 28 -40
v -14 29 21
v 25 29 21
v -13 29 20
v 24 29 20
v -21 29 19
v -14 29 19
v -21 29 6
v -13 29 6
v 24 29 -15
v 25 29 -15
v -20 29 -20
v -18 29 -20
v -17 29 -20
v -15 29 -20
v -14 29 -20
v -12 29 -20
v -20 29 -22
v -18 29 -22
v -17 29 -22
v -15 29 -22
v -14 29 -22
v -12 29 -22
v 18 30 -15
v 32 30 -15
v 22 30 -18
v 30 30 -18
v 22 30 -28
v 30 30 -28
v 18 30 -32
v 32 30 -32
v 22 32 -18
v 30 32 -18
v 22 32 -28
v 30 32 -28

# faces
f 3/4/1 2/4/1 1/4/1
f 4/4/1 2/4/1 3/4/1
f 7/1/1 6/1/1 5/1/1
f 8/1/1 6/1/1 7/1/1
f 11/2/1 10/2/1 9/2/1
f 12/2/1 10/2/1 11/2/1
f 15/3/1 14/3/1 13/3/1
f 16/3/1 14/3/1 15/3/1
f 19/3/1 18/3/1 17/3/1
f 20/3/1 18/3/1 19/3/1
f 23/3/1 22/3/1 21/3/1
f 24/3/1 22/3/1 23/3/1
f 29/3/1 26/3/1 25/3/1
f 30/3/1 26/3/1 29/3/1
f 31/3/1 28/3/1 27/3/1
f 32/3/1 28/3/1 31/3/1
f 35/2/1 34/2/1 33/2/1
f 36/2/1 34/2/1 35/2/1
f 37/1/1 36/1/1 35/1/1
f 38/1/1 36/1/1 37/1/1
f 41/3/1 40/3/1 39/3/1
f 42/3/1 40/3/1 41/3/1
f 45/3/1 44/3/1 43/3/1
f 46/3/1 44/3/1 45/3/1
f 49/3/1 48/3/1 47/3/1
f 50/3/1 48/3/1 49/3/1
f 51/3/2 52/3/2 53/3/2
f 53/3/2 52/3/2 54/3/2
f 55/3/2 56/3/2 57/3/2
f 57/3/2 56/3/2 58/3/2
f 59/3/2 60/3/2 61/3/2
f 61/3/2 60/3/2 62/3/2
f 63/3/2 64/3/2 65/3/2
f 65/3/2 64/3/2 66/3/2
f 67/2/2 68/2/2 69/2/2
f 69/2/2 68/2/2 70/2/2
f 69/1/2 70/1/2 71/1/2
f 71/1/2 70/1/2 72/1/2
f 73/3/2 74/3/2 75/3/2
f 75/3/2 74/3/2 76/3/2
f 77/3/2 78/3/2 79/3/2
f 79/3/2 78/3/2 80/3/2
f 81/3/2 82/3/2 83/3/2
f 83/3/2 82/3/2 84/3/2
f 85/2/2 86/2/2 89/2/2
f 86/3/2 87/3/2 89/3/2
f 87/2/2 88/2/2 90/2/2
f 89/3/2 87/3/2 90/3/2
f 85/2/2 89/2/2 91/2/2
f 89/2/2 90/2/2 91/2/2
f 90/2/2 88/2/2 92/2/2
f 91/2/2 90/2/2 92/2/2
f 93/4/2 94/4/2 95/4/2
f 95/4/2 94/4/2 96/4/2
f 97/1/2 98/1/2 99/1/2
f 99/1/2 98/1/2 100/1/2
f 105/4/3 102/4/3 101/4/3
f 108/4/3 105/4/3 101/4/3
f 108/2/3 106/2/3 105/2/3
f 109/1/3 107/1/3 106/1/3
f 109/2/3 106/2/3 108/2/3
f 110/1/3 107/1/3 109/1/3
f 111/4/3 108/4/3 101/4/3
f 112/4/3 108/4/3 111/4/3
f 113/1/3 104/1/3 103/1/3
f 114/1/3 104/1/3 113/1/3
f 117/2/3 116/2/3 115/2/3
f 118/2/3 116/2/3 117/2/3
f 119/3/3 118/3/3 117/3/3
f 120/2/3 116/2/3 118/2/3
f 120/3/3 118/3/3 119/3/3
f 121/2/3 120/2/3 119/2/3
f 122/2/3 116/2/3 120/2/3
f 122/2/3 120/2/3 121/2/3
f 123/3/3 122/3/3 121/3/3
f 124/3/3 122/3/3 123/3/3
f 125/3/3 122/3/3 124/3/3
f 128/3/3 122/3/3 125/3/3
f 129/3/3 127/3/3 126/3/3
f 129/3/3 128/3/3 127/3/3
f 130/2/3 116/2/3 122/2/3
f 130/3/3 128/3/3 129/3/3
f 130/3/3 122/3/3 128/3/3
f 131/2/3 130/2/3 129/2/3
f 132/2/3 116/2/3 130/2/3
f 132/2/3 130/2/3 131/2/3
f 133/3/3 132/3/3 131/3/3
f 134/2/3 116/2/3 132/2/3
f 134/3/3 132/3/3 133/3/3
f 135/2/3 134/2/3 133/2/3
f 136/2/3 116/2/3 134/2/3
f 136/2/3 134/2/3 135/2/3
f 139/3/3 138/3/3 137/3/3
f 140/3/3 138/3/3 139/3/3
f 143/3/3 142/3/3 141/3/3
f 144/3/3 142/3/3 143/3/3
f 147/3/3 146/3/3 145/3/3
f 148/3/3 146/3/3 147/3/3
f 150/3/3 146/3/3 148/3/3
f 151/3/3 150/3/3 149/3/3
f 152/3/3 146/3/3 150/3/3
f 152/3/3 150/3/3 151/3/3
f 155/3/3 154/3/3 153/3/3
f 156/3/3 154/3/3 155/3/3
f 159/3/3 158/3/3 157/3/3
f 160/3/3 158/3/3 159/3/3
f 163/3/3 162/3/3 161/3/3
f 164/3/3 162/3/3 163/3/3
f 167/3/3 166/3/3 165/3/3
f 168/3/3 166/3/3 167/3/3
f 169/3/4 170/3/4 171/3/4
f 171/3/4 170/3/4 172/3/4
f 173/3/4 174/3/4 175/3/4
f 175/3/4 174/3/4 176/3/4
f 177/3/4 178/3/4 179/3/4
f 179/3/4 178/3/4 180/3/4
f 181/3/4 182/3/4 183/3/4
f 183/3/4 182/3/4 184/3/4
f 185/3/4 186/3/4 187/3/4
f 187/3/4 186/3/4 188/3/4
f 189/3/4 190/3/4 191/3/4
f 191/3/4 190/3/4 192/3/4
f 193/3/4 194/3/4 195/3/4
f 195/3/4 194/3/4 196/3/4
f 197/2/4 198/2/4 199/2/4
f 199/2/4 198/2/4 200/2/4
f 199/3/4 200/3/4 201/3/4
f 200/2/4 198/2/4 202/2/4
f 201/3/4 200/3/4 202/3/4
f 201/2/4 202/2/4 203/2/4
f 202/2/4 198/2/4 204/2/4
f 203/2/4 202/2/4 204/2/4
f 205/4/4 206/4/4 209/4/4
f 209/4/4 206/4/4 210/4/4
f 207/1/4 208/1/4 211/1/4
f 211/1/4 208/1/4 212/1/4
f 215/4/5 214/4/5 213/4/5
f 216/4/5 214/4/5 215/4/5
f 219/1/5 218/1/5 217/1/5
f 220/1/5 218/1/5 219/1/5
f 221/1/5 219/1/5 217/1/5
f 222/1/5 218/1/5 220/1/5
f 223/1/5 221/1/5 217/1/5
f 223/1/5 222/1/5 221/1/5
f 224/1/5 218/1/5 222/1/5
f 224/1/5 222/1/5 223/1/5
f 225/4/6 226/4/6 229/4/6
f 229/4/6 226/4/6 230/4/6
f 230/4/6 226/4/6 231/4/6
f 231/4/6 226/4/6 232/4/6
f 232/4/6 226/4/6 233/4/6
f 227/4/6 228/4/6 234/4/6
f 234/4/6 228/4/6 235/4/6
f 235/4/6 228/4/6 236/4/6
f 236/4/6 228/4/6 237/4/6
f 237/4/6 228/4/6 238/4/6
f 238/4/6 228/4/6 239/4/6
f 239/4/6 228/4/6 240/4/6
f 225/4/6 229/4/6 241/4/6
f 240/4/6 228/4/6 244/4/6
f 242/4/6 243/4/6 245/4/6
f 243/4/6 244/4/6 245/4/6
f 225/4/6 241/4/6 245/4/6
f 241/4/6 242/4/6 245/4/6
f 244/4/6 228/4/6 246/4/6
f 245/4/6 244/4/6 246/4/6
f 247/1/6 248/1/6 249/1/6
f 249/1/6 248/1/6 250/1/6
f 251/1/6 252/1/6 253/1/6
f 253/1/6 252/1/6 254/1/6
f 251/1/6 253/1/6 257/1/6
f 257/1/6 253/1/6 258/1/6
f 251/1/6 257/1/6 259/1/6
f 255/1/6 256/1/6 260/1/6
f 260/1/6 256/1/6 261/1/6
f 259/1/6 260/1/6 261/1/6
f 261/1/6 256/1/6 262/1/6
f 254/1/6 252/1/6 263/1/6
f 263/1/6 252/1/6 264/1/6
f 259/1/6 261/1/6 265/1/6
f 265/1/6 261/1/6 266/1/6
f 266/1/6 261/1/6 267/1/6
f 267/1/6 261/1/6 268/1/6
f 268/1/6 261/1/6 269/1/6
f 269/1/6 261/1/6 270/1/6
f 259/1/6 265/1/6 271/1/6
f 266/1/6 267/1/6 272/1/6
f 272/1/6 267/1/6 273/1/6
f 268/1/6 269/1/6 274/1/6
f 274/1/6 269/1/6 275/1/6
f 270/1/6 261/1/6 276/1/6
f 274/1/6 275/1/6 277/1/6
f 275/1/6 276/1/6 277/1/6
f 276/1/6 261/1/6 277/1/6
f 272/1/6 273/1/6 277/1/6
f 273/1/6 274/1/6 277/1/6
f 271/1/6 272/1/6 277/1/6
f 264/1/6 252/1/6 278/1/6
f 251/1/6 259/1/6 279/1/6
f 277/1/6 278/1/6 279/1/6
f 271/1/6 277/1/6 279/1/6
f 259/1/6 271/1/6 279/1/6
f 278/1/6 252/1/6 280/1/6
f 279/1/6 278/1/6 280/1/6
f 281/3/6 282/3/6 283/3/6
f 283/3/6 282/3/6 284/3/6
f 281/3/6 283/3/6 286/3/6
f 285/3/6 286/3/6 287/3/6
f 286/3/6 283/3/6 288/3/6
f 287/3/6 286/3/6 288/3/6
f 284/3/6 282/3/6 289/3/6
f 289/3/6 282/3/6 290/3/6
f 291/3/6 292/3/6 297/3/6
f 297/3/6 292/3/6 298/3/6
f 293/3/6 294/3/6 299/3/6
f 299/3/6 294/3/6 300/3/6
f 295/3/6 296/3/6 301/3/6
f 301/3/6 296/3/6 302/3/6
f 303/3/6 304/3/6 305/3/6
f 305/3/6 304/3/6 306/3/6
f 303/3/6 305/3/6 307/3/6
f 306/3/6 304/3/6 308/3/6
f 303/3/6 307/3/6 309/3/6
f 307/3/6 308/3/6 309/3/6
f 308/3/6 304/3/6 310/3/6
f 309/3/6 308/3/6 310/3/6
f 311/3/6 312/3/6 313/3/6
f 313/3/6 312/3/6 314/3/6
