# MagicaVoxel @ Ephtracy

# group
g Road_straight-9

# material
mtllib Road_straight-9.mtl
usemtl palette

# normals
vn -1 0 0
vn 1 0 0
vn 0 0 1
vn 0 0 -1
vn 0 -1 0
vn 0 1 0

# texcoords
vt 0.970703 0.5
vt 0.986328 0.5
vt 0.990234 0.5

# verts
v -20 32 20
v -20 32 -20
v -20 33 4
v -20 33 3
v -20 34 4
v -20 34 3
v -20 34 2
v -20 35 2
v -20 35 1
v -20 36 3
v -20 36 2
v -20 37 2
v -20 37 1
v -20 37 -0
v -20 38 2
v -20 38 1
v -20 38 -0
v -20 40 20
v -20 40 2
v -20 40 1
v -20 40 -20
v 17 34 17
v 17 34 -8
v 17 34 -11
v 17 34 -17
v 17 40 17
v 17 40 -17
v -17 34 17
v -17 34 -17
v -17 40 17
v -17 40 -17
v 20 32 20
v 20 32 -20
v 20 40 20
v 20 40 -20
v -20 32 20
v -20 40 20
v 20 32 20
v 20 40 20
v -17 34 -17
v -17 40 -17
v 17 34 -17
v 17 40 -17
v -17 34 17
v -17 40 17
v 17 34 17
v 17 40 17
v -20 32 -20
v -20 40 -20
v 20 32 -20
v 20 40 -20
v -20 32 20
v 20 32 20
v -20 32 -20
v 20 32 -20
v -17 34 17
v 17 34 17
v -8 34 6
v -4 34 6
v -4 34 5
v -2 34 5
v -2 34 4
v -1 34 4
v -8 34 3
v -7 34 3
v -7 34 2
v -6 34 2
v -2 34 2
v -1 34 2
v -6 34 -0
v -3 34 -0
v 9 34 -0
v 11 34 -0
v -3 34 -1
v -2 34 -1
v 9 34 -2
v 11 34 -2
v 12 34 -2
v 6 34 -3
v 8 34 -3
v 11 34 -4
v 12 34 -4
v -16 34 -5
v -13 34 -5
v 8 34 -5
v 15 34 -5
v -13 34 -6
v -12 34 -6
v 6 34 -6
v 7 34 -6
v -16 34 -7
v -15 34 -7
v -14 34 -7
v -12 34 -7
v -10 34 -7
v 6 34 -7
v 7 34 -7
v -16 34 -8
v -15 34 -8
v -13 34 -8
v -12 34 -8
v -10 34 -8
v -9 34 -8
v 15 34 -8
v 17 34 -8
v -14 34 -9
v -13 34 -9
v -12 34 -9
v -9 34 -9
v -5 34 -9
v -16 34 -10
v -14 34 -10
v -11 34 -10
v -9 34 -10
v 6 34 -10
v 8 34 -10
v -14 34 -11
v -13 34 -11
v -12 34 -11
v 16 34 -11
v 17 34 -11
v -15 34 -12
v -14 34 -12
v -12 34 -12
v -11 34 -12
v -9 34 -12
v 15 34 -12
v 16 34 -12
v -12 34 -13
v -11 34 -13
v -5 34 -13
v 8 34 -13
v 12 34 -13
v 14 34 -13
v 15 34 -13
v -16 34 -14
v -15 34 -14
v -13 34 -14
v -11 34 -14
v -10 34 -14
v 12 34 -14
v 14 34 -14
v -16 34 -15
v -14 34 -15
v -11 34 -15
v -10 34 -15
v -17 34 -17
v 17 34 -17
v -20 40 20
v 20 40 20
v -18 40 19
v -17 40 19
v -14 40 19
v -13 40 19
v -10 40 19
v -9 40 19
v -6 40 19
v -5 40 19
v -2 40 19
v -1 40 19
v 2 40 19
v 3 40 19
v 6 40 19
v 7 40 19
v 10 40 19
v 11 40 19
v 14 40 19
v 15 40 19
v 18 40 19
v 19 40 19
v -19 40 18
v -18 40 18
v -17 40 18
v -14 40 18
v -13 40 18
v -10 40 18
v -9 40 18
v -6 40 18
v -5 40 18
v -2 40 18
v -1 40 18
v 2 40 18
v 3 40 18
v 6 40 18
v 7 40 18
v 10 40 18
v 11 40 18
v 14 40 18
v 15 40 18
v 18 40 18
v 19 40 18
v -19 40 17
v -18 40 17
v -17 40 17
v 17 40 17
v 18 40 15
v 19 40 15
v -19 40 14
v -18 40 14
v 18 40 14
v 19 40 14
v -19 40 13
v -18 40 13
v 18 40 11
v 19 40 11
v -19 40 10
v -18 40 10
v 18 40 10
v 19 40 10
v -19 40 9
v -18 40 9
v 18 40 7
v 19 40 7
v -19 40 6
v -18 40 6
v 18 40 6
v 19 40 6
v -19 40 5
v -18 40 5
v 18 40 3
v 19 40 3
v -20 40 2
v -19 40 2
v -18 40 2
v 18 40 2
v 19 40 2
v -20 40 1
v -19 40 1
v -18 40 1
v 18 40 -1
v 19 40 -1
v -19 40 -2
v -18 40 -2
v 18 40 -2
v 19 40 -2
v -19 40 -3
v -18 40 -3
v 18 40 -5
v 19 40 -5
v -19 40 -6
v -18 40 -6
v 18 40 -6
v 19 40 -6
v -19 40 -7
v -18 40 -7
v 18 40 -9
v 19 40 -9
v -19 40 -10
v -18 40 -10
v 18 40 -10
v 19 40 -10
v -19 40 -11
v -18 40 -11
v 18 40 -13
v 19 40 -13
v -19 40 -14
v -18 40 -14
v 18 40 -14
v 19 40 -14
v -19 40 -15
v -18 40 -15
v -17 40 -17
v 17 40 -17
v -19 40 -18
v -18 40 -18
v -15 40 -18
v -14 40 -18
v -9 40 -18
v -8 40 -18
v -5 40 -18
v -4 40 -18
v -1 40 -18
v 0 40 -18
v 4 40 -18
v 5 40 -18
v 9 40 -18
v 10 40 -18
v 14 40 -18
v 15 40 -18
v 18 40 -18
v 19 40 -18
v -19 40 -19
v -18 40 -19
v -15 40 -19
v -14 40 -19
v -9 40 -19
v -8 40 -19
v -5 40 -19
v -4 40 -19
v -1 40 -19
v 0 40 -19
v 4 40 -19
v 5 40 -19
v 9 40 -19
v 10 40 -19
v 14 40 -19
v 15 40 -19
v 18 40 -19
v 19 40 -19
v -20 40 -20
v 20 40 -20

# faces
f 3/2/1 2/2/1 1/2/1
f 4/2/1 2/2/1 3/2/1
f 5/2/1 3/2/1 1/2/1
f 5/3/1 4/3/1 3/3/1
f 6/2/1 2/2/1 4/2/1
f 6/3/1 4/3/1 5/3/1
f 7/2/1 2/2/1 6/2/1
f 8/3/1 7/3/1 6/3/1
f 8/2/1 2/2/1 7/2/1
f 9/2/1 2/2/1 8/2/1
f 10/2/1 6/2/1 5/2/1
f 10/3/1 8/3/1 6/3/1
f 10/3/1 9/3/1 8/3/1
f 11/3/1 9/3/1 10/3/1
f 12/2/1 11/2/1 10/2/1
f 12/3/1 9/3/1 11/3/1
f 13/2/1 2/2/1 9/2/1
f 13/3/1 9/3/1 12/3/1
f 14/2/1 2/2/1 13/2/1
f 15/2/1 12/2/1 10/2/1
f 15/2/1 13/2/1 12/2/1
f 16/3/1 14/3/1 13/3/1
f 16/2/1 13/2/1 15/2/1
f 17/2/1 2/2/1 14/2/1
f 17/3/1 14/3/1 16/3/1
f 18/2/1 5/2/1 1/2/1
f 18/2/1 10/2/1 5/2/1
f 18/2/1 15/2/1 10/2/1
f 19/3/1 16/3/1 15/3/1
f 19/2/1 15/2/1 18/2/1
f 20/2/1 17/2/1 16/2/1
f 20/3/1 16/3/1 19/3/1
f 21/2/1 2/2/1 17/2/1
f 21/2/1 17/2/1 20/2/1
f 26/2/1 23/2/1 22/2/1
f 26/2/1 25/2/1 24/2/1
f 26/2/1 24/2/1 23/2/1
f 27/2/1 25/2/1 26/2/1
f 28/2/2 29/2/2 30/2/2
f 30/2/2 29/2/2 31/2/2
f 32/2/2 33/2/2 34/2/2
f 34/2/2 33/2/2 35/2/2
f 38/2/3 37/2/3 36/2/3
f 39/2/3 37/2/3 38/2/3
f 42/2/3 41/2/3 40/2/3
f 43/2/3 41/2/3 42/2/3
f 44/2/4 45/2/4 46/2/4
f 46/2/4 45/2/4 47/2/4
f 48/2/4 49/2/4 50/2/4
f 50/2/4 49/2/4 51/2/4
f 54/2/5 53/2/5 52/2/5
f 55/2/5 53/2/5 54/2/5
f 56/2/6 57/2/6 58/2/6
f 58/2/6 57/2/6 59/2/6
f 58/3/6 59/3/6 60/3/6
f 59/2/6 57/2/6 60/2/6
f 60/2/6 57/2/6 61/2/6
f 60/3/6 61/3/6 62/3/6
f 61/2/6 57/2/6 62/2/6
f 62/2/6 57/2/6 63/2/6
f 56/2/6 58/2/6 64/2/6
f 58/3/6 60/3/6 64/3/6
f 62/3/6 63/3/6 64/3/6
f 60/3/6 62/3/6 64/3/6
f 64/3/6 63/3/6 65/3/6
f 64/2/6 65/2/6 66/2/6
f 65/3/6 63/3/6 66/3/6
f 66/3/6 63/3/6 67/3/6
f 67/3/6 63/3/6 68/3/6
f 63/2/6 57/2/6 69/2/6
f 68/3/6 63/3/6 69/3/6
f 67/3/6 68/3/6 70/3/6
f 66/2/6 67/2/6 70/2/6
f 70/3/6 68/3/6 71/3/6
f 69/2/6 57/2/6 72/2/6
f 68/2/6 69/2/6 72/2/6
f 72/2/6 57/2/6 73/2/6
f 71/3/6 68/3/6 74/3/6
f 70/2/6 71/2/6 74/2/6
f 68/2/6 72/2/6 75/2/6
f 74/3/6 68/3/6 75/3/6
f 72/3/6 73/3/6 76/3/6
f 75/2/6 72/2/6 76/2/6
f 74/2/6 75/2/6 76/2/6
f 73/2/6 57/2/6 77/2/6
f 76/3/6 73/3/6 77/3/6
f 77/2/6 57/2/6 78/2/6
f 74/2/6 76/2/6 79/2/6
f 76/2/6 77/2/6 79/2/6
f 79/2/6 77/2/6 80/2/6
f 77/3/6 78/3/6 81/3/6
f 80/2/6 77/2/6 81/2/6
f 78/2/6 57/2/6 82/2/6
f 81/3/6 78/3/6 82/3/6
f 56/2/6 64/2/6 83/2/6
f 64/2/6 66/2/6 83/2/6
f 70/2/6 74/2/6 83/2/6
f 74/2/6 79/2/6 83/2/6
f 66/2/6 70/2/6 83/2/6
f 83/2/6 79/2/6 84/2/6
f 80/2/6 81/2/6 85/2/6
f 81/2/6 82/2/6 85/2/6
f 79/3/6 80/3/6 85/3/6
f 82/2/6 57/2/6 86/2/6
f 85/2/6 82/2/6 86/2/6
f 84/2/6 79/2/6 87/2/6
f 83/3/6 84/3/6 87/3/6
f 87/2/6 79/2/6 88/2/6
f 79/3/6 85/3/6 89/3/6
f 88/2/6 79/2/6 89/2/6
f 85/3/6 86/3/6 89/3/6
f 89/3/6 86/3/6 90/3/6
f 87/3/6 88/3/6 91/3/6
f 83/3/6 87/3/6 91/3/6
f 56/2/6 83/2/6 91/2/6
f 91/3/6 88/3/6 92/3/6
f 92/3/6 88/3/6 93/3/6
f 89/2/6 90/2/6 94/2/6
f 93/3/6 88/3/6 94/3/6
f 88/2/6 89/2/6 94/2/6
f 94/2/6 90/2/6 95/2/6
f 95/2/6 90/2/6 96/2/6
f 90/3/6 86/3/6 97/3/6
f 96/2/6 90/2/6 97/2/6
f 91/2/6 92/2/6 98/2/6
f 56/2/6 91/2/6 98/2/6
f 92/3/6 93/3/6 99/3/6
f 98/2/6 92/2/6 99/2/6
f 93/2/6 94/2/6 100/2/6
f 94/3/6 95/3/6 101/3/6
f 100/2/6 94/2/6 101/2/6
f 95/2/6 96/2/6 102/2/6
f 101/3/6 95/3/6 102/3/6
f 102/2/6 96/2/6 103/2/6
f 86/2/6 57/2/6 104/2/6
f 97/3/6 86/3/6 104/3/6
f 96/3/6 97/3/6 104/3/6
f 104/2/6 57/2/6 105/2/6
f 99/3/6 93/3/6 106/3/6
f 93/2/6 100/2/6 106/2/6
f 98/3/6 99/3/6 106/3/6
f 100/3/6 101/3/6 107/3/6
f 106/2/6 100/2/6 107/2/6
f 102/3/6 103/3/6 107/3/6
f 101/3/6 102/3/6 107/3/6
f 107/3/6 103/3/6 108/3/6
f 103/2/6 96/2/6 109/2/6
f 108/3/6 103/3/6 109/3/6
f 109/2/6 96/2/6 110/2/6
f 98/3/6 106/3/6 111/3/6
f 56/2/6 98/2/6 111/2/6
f 106/3/6 107/3/6 111/3/6
f 111/3/6 107/3/6 112/3/6
f 109/3/6 110/3/6 113/3/6
f 108/3/6 109/3/6 113/3/6
f 113/3/6 110/3/6 114/3/6
f 110/2/6 96/2/6 115/2/6
f 96/3/6 104/3/6 115/3/6
f 104/3/6 105/3/6 115/3/6
f 115/3/6 105/3/6 116/3/6
f 112/3/6 107/3/6 117/3/6
f 111/2/6 112/2/6 117/2/6
f 107/2/6 108/2/6 118/2/6
f 117/3/6 107/3/6 118/3/6
f 108/3/6 113/3/6 119/3/6
f 118/2/6 108/2/6 119/2/6
f 116/3/6 105/3/6 120/3/6
f 120/3/6 105/3/6 121/3/6
f 111/2/6 117/2/6 122/2/6
f 117/2/6 118/2/6 122/2/6
f 122/2/6 118/2/6 123/2/6
f 119/3/6 113/3/6 124/3/6
f 118/3/6 119/3/6 124/3/6
f 113/2/6 114/2/6 125/2/6
f 124/3/6 113/3/6 125/3/6
f 114/3/6 110/3/6 126/3/6
f 125/2/6 114/2/6 126/2/6
f 116/3/6 120/3/6 127/3/6
f 120/2/6 121/2/6 128/2/6
f 127/3/6 120/3/6 128/3/6
f 124/2/6 125/2/6 129/2/6
f 118/3/6 124/3/6 129/3/6
f 125/3/6 126/3/6 130/3/6
f 129/2/6 125/2/6 130/2/6
f 115/2/6 116/2/6 131/2/6
f 130/3/6 126/3/6 131/3/6
f 110/2/6 115/2/6 131/2/6
f 126/3/6 110/3/6 131/3/6
f 116/3/6 127/3/6 132/3/6
f 131/2/6 116/2/6 132/2/6
f 132/3/6 127/3/6 133/3/6
f 133/3/6 127/3/6 134/3/6
f 127/2/6 128/2/6 135/2/6
f 134/3/6 127/3/6 135/3/6
f 56/2/6 111/2/6 136/2/6
f 111/2/6 122/2/6 136/2/6
f 122/3/6 123/3/6 137/3/6
f 136/2/6 122/2/6 137/2/6
f 123/2/6 118/2/6 138/2/6
f 129/3/6 130/3/6 138/3/6
f 118/3/6 129/3/6 138/3/6
f 130/2/6 131/2/6 139/2/6
f 138/3/6 130/3/6 139/3/6
f 132/2/6 133/2/6 139/2/6
f 131/2/6 132/2/6 139/2/6
f 139/2/6 133/2/6 140/2/6
f 133/3/6 134/3/6 141/3/6
f 140/2/6 133/2/6 141/2/6
f 134/2/6 135/2/6 142/2/6
f 141/3/6 134/3/6 142/3/6
f 136/3/6 137/3/6 143/3/6
f 56/2/6 136/2/6 143/2/6
f 137/3/6 123/3/6 144/3/6
f 143/3/6 137/3/6 144/3/6
f 123/2/6 138/2/6 144/2/6
f 138/2/6 139/2/6 144/2/6
f 139/3/6 140/3/6 145/3/6
f 144/2/6 139/2/6 145/2/6
f 141/2/6 142/2/6 146/2/6
f 145/3/6 140/3/6 146/3/6
f 140/2/6 141/2/6 146/2/6
f 56/2/6 143/2/6 147/2/6
f 143/2/6 144/2/6 147/2/6
f 145/2/6 146/2/6 147/2/6
f 144/2/6 145/2/6 147/2/6
f 128/2/6 121/2/6 148/2/6
f 147/2/6 146/2/6 148/2/6
f 146/2/6 142/2/6 148/2/6
f 135/2/6 128/2/6 148/2/6
f 142/2/6 135/2/6 148/2/6
f 149/2/6 150/2/6 151/2/6
f 151/2/6 150/2/6 152/2/6
f 152/2/6 150/2/6 153/2/6
f 153/2/6 150/2/6 154/2/6
f 154/2/6 150/2/6 155/2/6
f 155/2/6 150/2/6 156/2/6
f 156/2/6 150/2/6 157/2/6
f 157/2/6 150/2/6 158/2/6
f 158/2/6 150/2/6 159/2/6
f 159/2/6 150/2/6 160/2/6
f 160/2/6 150/2/6 161/2/6
f 161/2/6 150/2/6 162/2/6
f 162/2/6 150/2/6 163/2/6
f 163/2/6 150/2/6 164/2/6
f 164/2/6 150/2/6 165/2/6
f 165/2/6 150/2/6 166/2/6
f 166/2/6 150/2/6 167/2/6
f 167/2/6 150/2/6 168/2/6
f 168/2/6 150/2/6 169/2/6
f 169/2/6 150/2/6 170/2/6
f 149/2/6 151/2/6 171/2/6
f 151/1/6 152/1/6 172/1/6
f 171/2/6 151/2/6 172/2/6
f 152/2/6 153/2/6 173/2/6
f 172/1/6 152/1/6 173/1/6
f 153/1/6 154/1/6 174/1/6
f 173/2/6 153/2/6 174/2/6
f 154/2/6 155/2/6 175/2/6
f 174/1/6 154/1/6 175/1/6
f 155/1/6 156/1/6 176/1/6
f 175/2/6 155/2/6 176/2/6
f 156/2/6 157/2/6 177/2/6
f 176/1/6 156/1/6 177/1/6
f 157/1/6 158/1/6 178/1/6
f 177/2/6 157/2/6 178/2/6
f 158/2/6 159/2/6 179/2/6
f 178/1/6 158/1/6 179/1/6
f 159/1/6 160/1/6 180/1/6
f 179/2/6 159/2/6 180/2/6
f 160/2/6 161/2/6 181/2/6
f 180/1/6 160/1/6 181/1/6
f 161/1/6 162/1/6 182/1/6
f 181/2/6 161/2/6 182/2/6
f 162/2/6 163/2/6 183/2/6
f 182/1/6 162/1/6 183/1/6
f 163/1/6 164/1/6 184/1/6
f 183/2/6 163/2/6 184/2/6
f 164/2/6 165/2/6 185/2/6
f 184/1/6 164/1/6 185/1/6
f 165/1/6 166/1/6 186/1/6
f 185/2/6 165/2/6 186/2/6
f 166/2/6 167/2/6 187/2/6
f 186/1/6 166/1/6 187/1/6
f 167/1/6 168/1/6 188/1/6
f 187/2/6 167/2/6 188/2/6
f 168/2/6 169/2/6 189/2/6
f 188/1/6 168/1/6 189/1/6
f 169/1/6 170/1/6 190/1/6
f 189/2/6 169/2/6 190/2/6
f 170/2/6 150/2/6 191/2/6
f 190/1/6 170/1/6 191/1/6
f 149/2/6 171/2/6 192/2/6
f 171/1/6 172/1/6 192/1/6
f 189/2/6 190/2/6 193/2/6
f 192/1/6 172/1/6 193/1/6
f 190/2/6 191/2/6 193/2/6
f 188/2/6 189/2/6 193/2/6
f 187/2/6 188/2/6 193/2/6
f 186/2/6 187/2/6 193/2/6
f 185/2/6 186/2/6 193/2/6
f 184/2/6 185/2/6 193/2/6
f 183/2/6 184/2/6 193/2/6
f 182/2/6 183/2/6 193/2/6
f 181/2/6 182/2/6 193/2/6
f 180/2/6 181/2/6 193/2/6
f 179/2/6 180/2/6 193/2/6
f 178/2/6 179/2/6 193/2/6
f 177/2/6 178/2/6 193/2/6
f 176/2/6 177/2/6 193/2/6
f 175/2/6 176/2/6 193/2/6
f 174/2/6 175/2/6 193/2/6
f 173/2/6 174/2/6 193/2/6
f 172/2/6 173/2/6 193/2/6
f 193/2/6 191/2/6 194/2/6
f 194/2/6 191/2/6 195/2/6
f 195/2/6 191/2/6 196/2/6
f 191/2/6 150/2/6 197/2/6
f 196/2/6 191/2/6 197/2/6
f 149/2/6 192/2/6 198/2/6
f 192/2/6 193/2/6 198/2/6
f 193/2/6 194/2/6 198/2/6
f 198/2/6 194/2/6 199/2/6
f 195/2/6 196/2/6 200/2/6
f 196/1/6 197/1/6 200/1/6
f 197/2/6 150/2/6 201/2/6
f 200/1/6 197/1/6 201/1/6
f 198/1/6 199/1/6 202/1/6
f 149/2/6 198/2/6 202/2/6
f 199/2/6 194/2/6 203/2/6
f 202/1/6 199/1/6 203/1/6
f 195/2/6 200/2/6 204/2/6
f 200/2/6 201/2/6 204/2/6
f 201/2/6 150/2/6 205/2/6
f 204/2/6 201/2/6 205/2/6
f 149/2/6 202/2/6 206/2/6
f 202/2/6 203/2/6 206/2/6
f 203/2/6 194/2/6 207/2/6
f 206/2/6 203/2/6 207/2/6
f 195/2/6 204/2/6 208/2/6
f 204/1/6 205/1/6 208/1/6
f 205/2/6 150/2/6 209/2/6
f 208/1/6 205/1/6 209/1/6
f 149/2/6 206/2/6 210/2/6
f 206/1/6 207/1/6 210/1/6
f 207/2/6 194/2/6 211/2/6
f 210/1/6 207/1/6 211/1/6
f 195/2/6 208/2/6 212/2/6
f 208/2/6 209/2/6 212/2/6
f 209/2/6 150/2/6 213/2/6
f 212/2/6 209/2/6 213/2/6
f 149/2/6 210/2/6 214/2/6
f 210/2/6 211/2/6 214/2/6
f 211/2/6 194/2/6 215/2/6
f 214/2/6 211/2/6 215/2/6
f 195/2/6 212/2/6 216/2/6
f 212/1/6 213/1/6 216/1/6
f 213/2/6 150/2/6 217/2/6
f 216/1/6 213/1/6 217/1/6
f 149/2/6 214/2/6 218/2/6
f 214/1/6 215/1/6 218/1/6
f 215/2/6 194/2/6 219/2/6
f 218/1/6 215/1/6 219/1/6
f 195/2/6 216/2/6 220/2/6
f 216/2/6 217/2/6 220/2/6
f 217/2/6 150/2/6 221/2/6
f 220/2/6 217/2/6 221/2/6
f 149/2/6 218/2/6 222/2/6
f 218/2/6 219/2/6 222/2/6
f 222/2/6 219/2/6 223/2/6
f 219/2/6 194/2/6 224/2/6
f 223/2/6 219/2/6 224/2/6
f 195/2/6 220/2/6 225/2/6
f 220/1/6 221/1/6 225/1/6
f 221/2/6 150/2/6 226/2/6
f 225/1/6 221/1/6 226/1/6
f 222/3/6 223/3/6 227/3/6
f 223/1/6 224/1/6 228/1/6
f 227/3/6 223/3/6 228/3/6
f 224/2/6 194/2/6 229/2/6
f 228/1/6 224/1/6 229/1/6
f 195/2/6 225/2/6 230/2/6
f 225/2/6 226/2/6 230/2/6
f 226/2/6 150/2/6 231/2/6
f 230/2/6 226/2/6 231/2/6
f 227/2/6 228/2/6 232/2/6
f 228/2/6 229/2/6 232/2/6
f 229/2/6 194/2/6 233/2/6
f 232/2/6 229/2/6 233/2/6
f 195/2/6 230/2/6 234/2/6
f 230/1/6 231/1/6 234/1/6
f 231/2/6 150/2/6 235/2/6
f 234/1/6 231/1/6 235/1/6
f 227/2/6 232/2/6 236/2/6
f 232/1/6 233/1/6 236/1/6
f 233/2/6 194/2/6 237/2/6
f 236/1/6 233/1/6 237/1/6
f 195/2/6 234/2/6 238/2/6
f 234/2/6 235/2/6 238/2/6
f 235/2/6 150/2/6 239/2/6
f 238/2/6 235/2/6 239/2/6
f 227/2/6 236/2/6 240/2/6
f 236/2/6 237/2/6 240/2/6
f 237/2/6 194/2/6 241/2/6
f 240/2/6 237/2/6 241/2/6
f 195/2/6 238/2/6 242/2/6
f 238/1/6 239/1/6 242/1/6
f 239/2/6 150/2/6 243/2/6
f 242/1/6 239/1/6 243/1/6
f 227/2/6 240/2/6 244/2/6
f 240/1/6 241/1/6 244/1/6
f 241/2/6 194/2/6 245/2/6
f 244/1/6 241/1/6 245/1/6
f 195/2/6 242/2/6 246/2/6
f 242/2/6 243/2/6 246/2/6
f 243/2/6 150/2/6 247/2/6
f 246/2/6 243/2/6 247/2/6
f 227/2/6 244/2/6 248/2/6
f 244/2/6 245/2/6 248/2/6
f 245/2/6 194/2/6 249/2/6
f 248/2/6 245/2/6 249/2/6
f 195/2/6 246/2/6 250/2/6
f 246/1/6 247/1/6 250/1/6
f 247/2/6 150/2/6 251/2/6
f 250/1/6 247/1/6 251/1/6
f 227/2/6 248/2/6 252/2/6
f 248/1/6 249/1/6 252/1/6
f 249/2/6 194/2/6 253/2/6
f 252/1/6 249/1/6 253/1/6
f 195/2/6 250/2/6 254/2/6
f 250/2/6 251/2/6 254/2/6
f 251/2/6 150/2/6 255/2/6
f 254/2/6 251/2/6 255/2/6
f 227/2/6 252/2/6 256/2/6
f 252/2/6 253/2/6 256/2/6
f 253/2/6 194/2/6 257/2/6
f 256/2/6 253/2/6 257/2/6
f 195/2/6 254/2/6 258/2/6
f 254/1/6 255/1/6 258/1/6
f 255/2/6 150/2/6 259/2/6
f 258/1/6 255/1/6 259/1/6
f 227/2/6 256/2/6 260/2/6
f 256/1/6 257/1/6 260/1/6
f 257/2/6 194/2/6 261/2/6
f 260/1/6 257/1/6 261/1/6
f 260/2/6 261/2/6 262/2/6
f 261/2/6 194/2/6 262/2/6
f 195/2/6 258/2/6 263/2/6
f 258/2/6 259/2/6 263/2/6
f 260/2/6 262/2/6 264/2/6
f 262/2/6 263/2/6 264/2/6
f 227/2/6 260/2/6 264/2/6
f 264/2/6 263/2/6 265/2/6
f 265/2/6 263/2/6 266/2/6
f 266/2/6 263/2/6 267/2/6
f 267/2/6 263/2/6 268/2/6
f 268/2/6 263/2/6 269/2/6
f 269/2/6 263/2/6 270/2/6
f 270/2/6 263/2/6 271/2/6
f 271/2/6 263/2/6 272/2/6
f 272/2/6 263/2/6 273/2/6
f 273/2/6 263/2/6 274/2/6
f 274/2/6 263/2/6 275/2/6
f 275/2/6 263/2/6 276/2/6
f 276/2/6 263/2/6 277/2/6
f 277/2/6 263/2/6 278/2/6
f 278/2/6 263/2/6 279/2/6
f 263/2/6 259/2/6 280/2/6
f 279/2/6 263/2/6 280/2/6
f 259/2/6 150/2/6 281/2/6
f 280/2/6 259/2/6 281/2/6
f 227/2/6 264/2/6 282/2/6
f 264/1/6 265/1/6 282/1/6
f 265/2/6 266/2/6 283/2/6
f 282/1/6 265/1/6 283/1/6
f 266/1/6 267/1/6 284/1/6
f 283/2/6 266/2/6 284/2/6
f 267/2/6 268/2/6 285/2/6
f 284/1/6 267/1/6 285/1/6
f 268/1/6 269/1/6 286/1/6
f 285/2/6 268/2/6 286/2/6
f 269/2/6 270/2/6 287/2/6
f 286/1/6 269/1/6 287/1/6
f 270/1/6 271/1/6 288/1/6
f 287/2/6 270/2/6 288/2/6
f 271/2/6 272/2/6 289/2/6
f 288/1/6 271/1/6 289/1/6
f 272/1/6 273/1/6 290/1/6
f 289/2/6 272/2/6 290/2/6
f 273/2/6 274/2/6 291/2/6
f 290/1/6 273/1/6 291/1/6
f 274/1/6 275/1/6 292/1/6
f 291/2/6 274/2/6 292/2/6
f 275/2/6 276/2/6 293/2/6
f 292/1/6 275/1/6 293/1/6
f 276/1/6 277/1/6 294/1/6
f 293/2/6 276/2/6 294/2/6
f 277/2/6 278/2/6 295/2/6
f 294/1/6 277/1/6 295/1/6
f 278/1/6 279/1/6 296/1/6
f 295/2/6 278/2/6 296/2/6
f 279/2/6 280/2/6 297/2/6
f 296/1/6 279/1/6 297/1/6
f 280/1/6 281/1/6 298/1/6
f 297/2/6 280/2/6 298/2/6
f 281/2/6 150/2/6 299/2/6
f 298/1/6 281/1/6 299/1/6
f 295/2/6 296/2/6 300/2/6
f 294/2/6 295/2/6 300/2/6
f 298/2/6 299/2/6 300/2/6
f 293/2/6 294/2/6 300/2/6
f 292/2/6 293/2/6 300/2/6
f 291/2/6 292/2/6 300/2/6
f 290/2/6 291/2/6 300/2/6
f 289/2/6 290/2/6 300/2/6
f 288/2/6 289/2/6 300/2/6
f 287/2/6 288/2/6 300/2/6
f 286/2/6 287/2/6 300/2/6
f 285/2/6 286/2/6 300/2/6
f 284/2/6 285/2/6 300/2/6
f 283/2/6 284/2/6 300/2/6
f 282/2/6 283/2/6 300/2/6
f 227/2/6 282/2/6 300/2/6
f 296/2/6 297/2/6 300/2/6
f 297/2/6 298/2/6 300/2/6
f 299/2/6 150/2/6 301/2/6
f 300/2/6 299/2/6 301/2/6
